<svg xmlns="http://www.w3.org/2000/svg" width="48" height="48" viewBox="0 0 48 48">
  <path fill-rule="evenodd" d="M31.9591786,4 C38.5986062,4 44,9.26122862 44,15.7279466 L44,32.2720534 C44,38.7388922 38.5986062,44 31.9591786,44 L16.0409454,44 C9.40151778,44 4,38.7388922 4,32.2720534 L4,15.7279466 C4,9.26122862 9.40151778,4 16.0409454,4 L31.9591786,4 Z M39.6520014,32.2720534 L39.6520014,15.7279466 C39.6520014,11.5963585 36.2010317,8.23509519 31.9591786,8.23509519 L16.0409454,8.23509519 C11.7990923,8.23509519 8.34812261,11.5963585 8.34812261,15.7279466 L8.34812261,32.2720534 C8.34812261,36.4036415 11.7990923,39.7649048 16.0409454,39.7649048 L31.9591786,39.7649048 C36.2010317,39.7649048 39.6520014,36.4036415 39.6520014,32.2720534 Z M24.0775631,12.833987 C27.5956178,12.9339916 30.529748,14.1039721 32.5625093,16.2177152 C34.4942091,18.2262602 35.4786593,20.9184112 35.4095903,24.0028504 C35.3432493,26.957332 34.1452681,29.725211 32.0364937,31.7965608 C29.8942389,33.9008832 27.0402138,35.0598729 24.000062,35.0598729 C17.7085834,35.0598729 12.5900377,30.0743814 12.5900377,23.9463261 C12.5900377,17.7100533 17.7688483,12.6542688 24.0775631,12.833987 Z M30.0963618,23.8898018 C30.1230222,22.701946 29.899571,21.0204689 28.6838574,19.756402 C27.6405064,18.6714495 25.9941347,18.0669535 23.9225609,18.0080136 C23.8667601,18.0064435 23.8113313,18.0057189 23.7560265,18.0057189 C22.2130723,18.0057189 20.7531992,18.6224135 19.6451193,19.7421502 C18.5226551,20.8766218 17.9043822,22.3696846 17.9043822,23.9463261 C17.9043822,27.2201458 20.6388696,29.8835515 24.000062,29.8835515 C27.3431501,29.8835515 30.0210927,27.2508236 30.0963618,23.8898018 Z M34.7810004,11.0132645 C36.13696,11.0132645 37.2361118,12.0838444 37.2361118,13.4045564 C37.2361118,14.7251476 36.13696,15.7957275 34.7810004,15.7957275 C33.4250409,15.7957275 32.3258891,14.7251476 32.3258891,13.4045564 C32.3258891,12.0838444 33.4250409,11.0132645 34.7810004,11.0132645 Z"/>
</svg>
