<svg height="39" viewBox="0 0 40 39" width="40" xmlns="http://www.w3.org/2000/svg"><path d="m22.3432711 16.1772081c.0167178-.0278629.0390081-.0557258.0557258-.0835887v.0835887zm-21.83616606 22.0562831h8.57063246v-25.7954862h-8.57063246zm9.13624966-33.77542489c-.0529395-2.52995263-1.8584564-4.45806631-4.79242129-4.45806631-2.9339649 0-4.85093341 1.92811368-4.85093341 4.45806631 0 2.47701309 1.85845639 4.45806629 4.73669546 4.45806629h.05572583c2.99247701 0 4.85093341-1.9810532 4.85093341-4.45806629zm30.3566453 18.98578989c0-7.9269991-4.2323767-11.6104764-9.8746169-11.6104764-4.5555865 0-6.586793 2.5020897-7.7263862 4.2602396v-3.6556144h-8.5734187c.1142379 2.418501 0 25.7954862 0 25.7954862h8.5734187v-14.4051268c0-.7718027.0529396-1.5436054.2842018-2.0925048.6185567-1.5408192 2.0284201-3.1373642 4.3967679-3.1373642 3.1039286 0 4.3438283 2.3655614 4.3438283 5.8344943v13.8005015h8.5762051z"/></svg>