<svg xmlns="http://www.w3.org/2000/svg" width="48" height="48" viewBox="0 0 48 48">
  <path fill-rule="evenodd" d="M46,10.2625813 C44.3817793,10.9846797 42.641542,11.4727463 40.815293,11.6947766 C42.6795472,10.568623 44.1097422,8.78838023 44.7838342,6.66609083 C43.037596,7.70823294 41.1093331,8.46433605 39.0510524,8.87039142 C37.4048279,7.10415057 35.0605083,6 32.4621539,6 C27.4754739,6 23.4349229,10.0705551 23.4349229,15.0892394 C23.4349229,15.8033368 23.5149339,16.4954312 23.6689549,17.161522 C16.167932,16.7834705 9.51502478,13.164977 5.06441788,7.66622721 C4.28631177,9.00640996 3.84225122,10.568623 3.84225122,12.2348502 C3.84225122,15.3872801 5.43646861,18.1696595 7.85679865,19.7978815 C6.37659681,19.749875 4.98640724,19.3418193 3.76824112,18.6617266 L3.76824112,18.7777424 C3.76824112,23.1803428 6.87866527,26.8528436 11.0112288,27.6889576 C10.2531254,27.8949857 9.45701687,28.0090012 8.63290449,28.0090012 C8.05082511,28.0090012 7.48474792,27.9509933 6.93467291,27.8429786 C8.08282948,31.4534709 11.4172842,34.0818293 15.3658226,34.1558394 C12.2774015,36.5941719 8.38487066,38.04637 4.15429377,38.04637 C3.42619448,38.04637 2.70609629,38.002364 2,37.9203528 C5.99454471,40.4987044 10.7391917,42.0029095 15.837887,42.0029095 C32.4421512,42.0029095 41.5213893,28.1530209 41.5213893,16.1433832 C41.5213893,15.7493295 41.5113879,15.3592763 41.4953857,14.9692231 C43.2596263,13.6870482 44.789835,12.08683 46,10.2645815 L46,10.2625813 L46,10.2625813 Z"/>
</svg>
