<svg xmlns="http://www.w3.org/2000/svg" width="431" height="85" viewBox="0 0 431 85">
  <g fill="none" fill-rule="evenodd">
    <path fill="#424242" d="M21.9956,50.292 C23.2196,49.645 24.4796,48.721 25.7756,47.521 L29.3036,51.336 C27.8636,52.92 26.1596,54.229 24.1916,55.261 C22.2236,56.292 20.0156,56.809 17.5676,56.809 C12.2396,56.809 7.9796,54.648 4.7876,50.328 C1.5956,46.009 -0.0004,39.601 -0.0004,31.105 C-0.0004,25.393 0.7556,20.628 2.2676,16.813 C3.7796,12.996 5.8426,10.165 8.4596,8.316 C11.0756,6.469 14.0396,5.544 17.3516,5.544 C19.7036,5.544 21.7676,5.94 23.5436,6.732 C25.3186,7.524 27.0956,8.737 28.8716,10.368 L25.4876,14.328 C24.1436,13.129 22.8476,12.253 21.5996,11.7 C20.3506,11.149 18.9826,10.872 17.4956,10.872 C10.4396,10.872 6.9116,17.617 6.9116,31.105 C6.9116,44.545 10.5116,51.265 17.7116,51.265 C19.3426,51.265 20.7716,50.94 21.9956,50.292 Z M56.3747,50.8678 C56.7587,51.5168 57.3827,52.0318 58.2467,52.4158 L56.8787,56.8088 C55.1027,56.5208 53.6987,55.9558 52.6667,55.1158 C51.6347,54.2778 50.9027,53.0168 50.4707,51.3358 C48.4067,54.9848 45.3827,56.8088 41.3987,56.8088 C38.2777,56.8088 35.7937,55.7648 33.9467,53.6768 C32.0987,51.5878 31.1747,48.8168 31.1747,45.3608 C31.1747,41.3278 32.4227,38.2448 34.9187,36.1088 C37.4137,33.9728 41.0387,32.9048 45.7907,32.9048 L49.5347,32.9048 L49.5347,29.4478 C49.5347,26.9528 49.0417,25.1278 48.0587,23.9768 C47.0747,22.8238 45.5497,22.2478 43.4867,22.2478 C41.0387,22.2478 38.1827,22.8968 34.9187,24.1928 L33.3347,19.7288 C37.2227,18.0488 40.8697,17.2078 44.2787,17.2078 C48.1667,17.2078 51.0577,18.2518 52.9547,20.3408 C54.8507,22.4288 55.7987,25.3688 55.7987,29.1598 L55.7987,47.8798 C55.7987,49.2248 55.9907,50.2208 56.3747,50.8678 Z M49.5347,46.0088 L49.5347,37.1528 L46.5107,37.1528 C43.4867,37.1528 41.2657,37.8008 39.8507,39.0968 C38.4347,40.3928 37.7267,42.3848 37.7267,45.0718 C37.7267,47.3758 38.1587,49.1168 39.0227,50.2918 C39.8867,51.4688 41.1107,52.0568 42.6947,52.0568 C45.6707,52.0568 47.9507,50.0398 49.5347,46.0088 Z M83.0859,45.4326 L83.0859,17.9996 L89.4219,17.9996 L89.4219,55.9446 L83.9499,55.9446 L83.5179,50.6166 C82.3169,52.6806 80.9619,54.2286 79.4499,55.2606 C77.9379,56.2916 76.1739,56.8086 74.1579,56.8086 C71.4219,56.8086 69.2369,55.8716 67.6059,53.9996 C65.9739,52.1276 65.1579,49.6806 65.1579,46.6566 L65.1579,17.9996 L71.4939,17.9996 L71.4939,46.0086 C71.4939,49.8966 72.8619,51.8406 75.5979,51.8406 C77.1819,51.8406 78.5739,51.2766 79.7739,50.1486 C80.9729,49.0216 82.0779,47.4486 83.0859,45.4326 Z M124.8451,19.6558 C123.7401,20.1368 122.5051,20.4478 121.1371,20.5928 C119.7691,20.7368 118.0291,20.8088 115.9171,20.8088 C119.6131,22.8238 121.4611,26.0408 121.4611,30.4558 C121.4611,34.3448 120.3811,37.4528 118.2211,39.7798 C116.0611,42.1098 113.0841,43.2728 109.2931,43.2728 C107.9001,43.2728 106.6291,43.0318 105.4771,42.5528 C104.9971,42.9378 104.6241,43.4518 104.3611,44.1008 C104.0971,44.7478 103.9651,45.4328 103.9651,46.1528 C103.9651,47.2088 104.2531,48.0368 104.8291,48.6368 C105.4051,49.2378 106.4371,49.5358 107.9251,49.5358 L112.1011,49.5358 C114.4531,49.5358 116.5171,49.9928 118.2931,50.9048 C120.0681,51.8168 121.4251,53.0528 122.3611,54.6128 C123.2971,56.1718 123.7651,57.8888 123.7651,59.7608 C123.7651,63.2168 122.4801,65.9878 119.9131,68.0758 C117.3451,70.1638 113.6371,71.2078 108.7891,71.2078 C103.7961,71.2078 100.2571,70.2368 98.1691,68.2918 C96.0811,66.3488 95.0371,63.5038 95.0371,59.7608 L100.6531,59.7608 C100.6531,62.1118 101.2291,63.7798 102.3811,64.7648 C103.5331,65.7478 105.6931,66.2398 108.8611,66.2398 C111.9331,66.2398 114.1411,65.7238 115.4851,64.6928 C116.8291,63.6588 117.5011,62.1598 117.5011,60.1928 C117.5011,56.4478 115.2931,54.5758 110.8771,54.5758 L108.2131,54.5758 C104.7571,54.5758 102.2371,53.9408 100.6531,52.6678 C99.0691,51.3978 98.2771,49.6808 98.2771,47.5208 C98.2771,45.2168 99.5251,43.0568 102.0211,41.0398 C98.3241,38.7848 96.4771,35.2338 96.4771,30.3848 C96.4771,26.4008 97.6531,23.2088 100.0051,20.8088 C102.3561,18.4088 105.4051,17.2078 109.1491,17.2078 C112.5081,17.2078 115.1491,16.9458 117.0691,16.4158 C118.9881,15.8888 120.9571,15.0728 122.9731,13.9688 L124.8451,19.6558 Z M113.6851,37.0088 C114.6931,35.6648 115.1971,33.4328 115.1971,30.3128 C115.1971,24.6008 113.1561,21.7438 109.0771,21.7438 C106.9641,21.7438 105.3801,22.4408 104.3251,23.8318 C103.2691,25.2248 102.7411,27.4088 102.7411,30.3848 C102.7411,32.9768 103.2921,35.0648 104.3971,36.6488 C105.5011,38.2328 107.0371,39.0248 109.0051,39.0248 C111.1171,39.0248 112.6771,38.3528 113.6851,37.0088 Z M144.7886,17.208 C147.5246,17.208 149.7086,18.192 151.3406,20.16 C152.9726,22.129 153.7886,24.769 153.7886,28.08 L153.7886,55.944 L147.4526,55.944 L147.4526,28.944 C147.4526,26.496 147.1036,24.757 146.4086,23.725 C145.7126,22.692 144.6686,22.177 143.2766,22.177 C140.5406,22.177 137.9966,24.528 135.6446,29.232 L135.6446,55.944 L129.3086,55.944 L129.3086,2.809 L135.6446,2.16 L135.6446,23.328 C136.8436,21.312 138.1526,19.789 139.5686,18.756 C140.9836,17.725 142.7246,17.208 144.7886,17.208 Z M177.4043,50.2559 L179.8523,54.2169 C177.6923,55.9439 175.2683,56.8089 172.5803,56.8089 C169.7473,56.8089 167.5513,55.9679 165.9923,54.2879 C164.4323,52.6089 163.6523,50.3539 163.6523,47.5209 L163.6523,22.9689 L158.5403,22.9689 L158.5403,17.9999 L163.6523,17.9999 L163.6523,9.4329 L169.9883,8.6409 L169.9883,17.9999 L177.3323,17.9999 L176.6843,22.9689 L169.9883,22.9689 L169.9883,47.5929 C169.9883,50.2329 171.1153,51.5529 173.3723,51.5529 C174.1393,51.5529 174.8123,51.4569 175.3883,51.2649 C175.9643,51.0729 176.6353,50.7359 177.4043,50.2559 Z"/>
    <path fill="#9E9E9E" d="M184.008,55.9446 L184.008,6.3366 L190.56,6.3366 L190.56,55.9446 L184.008,55.9446 Z M222.3833,20.1602 C224.0143,22.1292 224.8313,24.7682 224.8313,28.0802 L224.8313,55.9442 L218.4953,55.9442 L218.4953,28.9442 C218.4953,26.4962 218.1463,24.7572 217.4513,23.7242 C216.7553,22.6922 215.7113,22.1772 214.3193,22.1772 C211.5833,22.1772 209.0383,24.5282 206.6873,29.2322 L206.6873,55.9442 L200.3513,55.9442 L200.3513,18.0002 L205.8233,18.0002 L206.3273,23.6882 C207.5743,21.5772 208.9433,19.9692 210.4313,18.8642 C211.9183,17.7612 213.7183,17.2082 215.8313,17.2082 C218.5673,17.2082 220.7513,18.1922 222.3833,20.1602 Z M135.8198,71.9639 C136.9128,72.3779 137.7398,72.8919 138.2998,73.5039 C138.8598,74.1179 139.1398,74.9909 139.1398,76.1239 C139.1398,76.8579 138.9698,77.5339 138.6298,78.1539 C138.2898,78.7749 137.8058,79.2679 137.1798,79.6349 C136.5528,80.0009 135.8258,80.1849 134.9998,80.1849 C134.1728,80.1849 133.4398,80.0309 132.7998,79.7249 C132.1598,79.4179 131.5798,78.9779 131.0598,78.4039 L132.0398,77.3639 C132.5068,77.7909 132.9698,78.1179 133.4298,78.3449 C133.8898,78.5709 134.3998,78.6849 134.9598,78.6849 C135.6528,78.6849 136.2068,78.4579 136.6198,78.0039 C137.0328,77.5509 137.2398,76.9379 137.2398,76.1639 C137.2398,75.4979 137.0728,74.9639 136.7398,74.5649 C136.4058,74.1639 135.7858,73.7979 134.8798,73.4639 C133.7198,73.0249 132.8698,72.4909 132.3298,71.8639 C131.7898,71.2369 131.5198,70.4509 131.5198,69.5039 C131.5198,68.8519 131.6798,68.2509 131.9998,67.7039 C132.3198,67.1579 132.7658,66.7279 133.3398,66.4139 C133.9128,66.1019 134.5598,65.9439 135.2798,65.9439 C136.0128,65.9439 136.6628,66.0739 137.2298,66.3339 C137.7968,66.5949 138.3198,66.9909 138.7998,67.5249 L137.8398,68.5649 C137.4258,68.1639 137.0198,67.8739 136.6198,67.6939 C136.2198,67.5149 135.7798,67.4249 135.2998,67.4249 C134.7268,67.4249 134.2628,67.6079 133.9098,67.9749 C133.5558,68.3409 133.3798,68.8239 133.3798,69.4249 C133.3798,70.0109 133.5498,70.4909 133.8898,70.8639 C134.2298,71.2369 134.8728,71.6049 135.8198,71.9639 Z M144.6197,69.1847 C145.8727,69.1847 146.8427,69.6477 147.5297,70.5747 C148.2167,71.5007 148.5597,72.8647 148.5597,74.6637 C148.5597,76.3577 148.2097,77.7007 147.5097,78.6947 C146.8097,79.6877 145.8397,80.1847 144.5997,80.1847 C143.3597,80.1847 142.3927,79.6987 141.6997,78.7247 C141.0067,77.7507 140.6597,76.4047 140.6597,74.6847 C140.6597,72.9107 141.0067,71.5507 141.6997,70.6047 C142.3927,69.6587 143.3667,69.1847 144.6197,69.1847 Z M146.1797,77.8047 C146.5267,77.1637 146.6997,76.1177 146.6997,74.6637 C146.6997,73.2247 146.5267,72.1877 146.1797,71.5547 C145.8327,70.9207 145.3127,70.6047 144.6197,70.6047 C143.9127,70.6047 143.3867,70.9207 143.0397,71.5547 C142.6927,72.1877 142.5197,73.2317 142.5197,74.6847 C142.5197,76.1237 142.6927,77.1637 143.0397,77.8047 C143.3867,78.4447 143.9067,78.7647 144.5997,78.7647 C145.3057,78.7647 145.8327,78.4447 146.1797,77.8047 Z M155.8193,77.0244 L155.8193,69.4044 L157.5793,69.4044 L157.5793,79.9444 L156.0593,79.9444 L155.9393,78.4634 C155.6063,79.0384 155.2293,79.4674 154.8093,79.7534 C154.3893,80.0414 153.8993,80.1844 153.3393,80.1844 C152.5793,80.1844 151.9723,79.9244 151.5193,79.4044 C151.0663,78.8844 150.8393,78.2044 150.8393,77.3644 L150.8393,69.4044 L152.5993,69.4044 L152.5993,77.1844 C152.5993,78.2644 152.9793,78.8044 153.7393,78.8044 C154.1793,78.8044 154.5663,78.6474 154.8993,78.3344 C155.2323,78.0214 155.5393,77.5844 155.8193,77.0244 Z M163.9189,78.6446 C164.0789,78.5906 164.2659,78.4986 164.4789,78.3646 L165.1589,79.4636 C164.5589,79.9446 163.8859,80.1846 163.1389,80.1846 C162.3519,80.1846 161.7419,79.9516 161.3089,79.4846 C160.8759,79.0176 160.6589,78.3916 160.6589,77.6046 L160.6589,70.7846 L159.2389,70.7846 L159.2389,69.4046 L160.6589,69.4046 L160.6589,67.0246 L162.4189,66.8046 L162.4189,69.4046 L164.4589,69.4046 L164.2789,70.7846 L162.4189,70.7846 L162.4189,77.6236 C162.4189,78.3576 162.7319,78.7246 163.3589,78.7246 C163.5719,78.7246 163.7589,78.6986 163.9189,78.6446 Z M170.9189,69.1846 C171.6789,69.1846 172.2859,69.4576 172.7389,70.0036 C173.1919,70.5506 173.4189,71.2846 173.4189,72.2046 L173.4189,79.9446 L171.6589,79.9446 L171.6589,72.4446 C171.6589,71.7646 171.5629,71.2816 171.3689,70.9946 C171.1759,70.7076 170.8859,70.5646 170.4989,70.5646 C169.7389,70.5646 169.0319,71.2176 168.3789,72.5246 L168.3789,79.9446 L166.6189,79.9446 L166.6189,65.1846 L168.3789,65.0036 L168.3789,70.8846 C168.7119,70.3246 169.0759,69.9016 169.4689,69.6146 C169.8619,69.3286 170.3459,69.1846 170.9189,69.1846 Z M185.439,72.6636 C186.372,72.8516 187.099,73.2016 187.619,73.7136 C188.139,74.2276 188.399,75.0036 188.399,76.0436 C188.399,77.3376 187.976,78.3116 187.129,78.9636 C186.282,79.6186 185.119,79.9446 183.639,79.9446 L180.559,79.9446 L180.559,66.1636 L183.179,66.1636 C184.699,66.1636 185.866,66.4636 186.679,67.0646 C187.492,67.6636 187.899,68.5246 187.899,69.6446 C187.899,70.4316 187.682,71.0786 187.249,71.5836 C186.815,72.0906 186.212,72.4516 185.439,72.6636 Z M185.769,77.9346 C186.256,77.5676 186.499,76.9376 186.499,76.0436 C186.499,75.1236 186.269,74.4606 185.809,74.0546 C185.349,73.6476 184.645,73.4446 183.699,73.4446 L182.379,73.4446 L182.379,78.4846 L183.639,78.4846 C184.572,78.4846 185.282,78.3006 185.769,77.9346 Z M182.379,67.6046 L182.379,72.0246 L183.559,72.0246 C184.386,72.0246 185.006,71.8336 185.419,71.4546 C185.832,71.0746 186.039,70.5176 186.039,69.7846 C186.039,68.9976 185.822,68.4376 185.389,68.1046 C184.956,67.7716 184.279,67.6046 183.359,67.6046 L182.379,67.6046 Z M193.9185,69.1847 C195.1715,69.1847 196.1415,69.6477 196.8285,70.5747 C197.5155,71.5007 197.8585,72.8647 197.8585,74.6637 C197.8585,76.3577 197.5085,77.7007 196.8085,78.6947 C196.1085,79.6877 195.1385,80.1847 193.8985,80.1847 C192.6585,80.1847 191.6915,79.6987 190.9985,78.7247 C190.3055,77.7507 189.9585,76.4047 189.9585,74.6847 C189.9585,72.9107 190.3055,71.5507 190.9985,70.6047 C191.6915,69.6587 192.6655,69.1847 193.9185,69.1847 Z M195.4785,77.8047 C195.8255,77.1637 195.9985,76.1177 195.9985,74.6637 C195.9985,73.2247 195.8255,72.1877 195.4785,71.5547 C195.1315,70.9207 194.6115,70.6047 193.9185,70.6047 C193.2115,70.6047 192.6855,70.9207 192.3385,71.5547 C191.9915,72.1877 191.8185,73.2317 191.8185,74.6847 C191.8185,76.1237 191.9915,77.1637 192.3385,77.8047 C192.6855,78.4447 193.2055,78.7647 193.8985,78.7647 C194.6045,78.7647 195.1315,78.4447 195.4785,77.8047 Z M203.2183,73.8242 C204.1783,74.1712 204.8853,74.5842 205.3383,75.0642 C205.7913,75.5442 206.0183,76.1982 206.0183,77.0242 C206.0183,78.0242 205.6813,78.8012 205.0083,79.3542 C204.3353,79.9082 203.4983,80.1842 202.4983,80.1842 C201.1653,80.1842 200.0513,79.7242 199.1583,78.8042 L200.0783,77.8242 C200.8243,78.4772 201.6183,78.8042 202.4583,78.8042 C202.9913,78.8042 203.4183,78.6582 203.7383,78.3642 C204.0583,78.0712 204.2183,77.6582 204.2183,77.1242 C204.2183,76.7642 204.1583,76.4712 204.0383,76.2442 C203.9183,76.0172 203.7113,75.8112 203.4183,75.6242 C203.1253,75.4372 202.6983,75.2442 202.1383,75.0442 C201.2053,74.6982 200.5383,74.2882 200.1383,73.8142 C199.7383,73.3412 199.5383,72.7582 199.5383,72.0642 C199.5383,71.5312 199.6753,71.0442 199.9483,70.6042 C200.2213,70.1642 200.6053,69.8172 201.0983,69.5642 C201.5913,69.3112 202.1513,69.1842 202.7783,69.1842 C203.9383,69.1842 204.9313,69.5782 205.7583,70.3642 L204.9983,71.3852 C204.6253,71.1042 204.2643,70.8942 203.9183,70.7542 C203.5713,70.6142 203.2053,70.5442 202.8183,70.5442 C202.3513,70.5442 201.9813,70.6752 201.7083,70.9342 C201.4353,71.1942 201.2983,71.5512 201.2983,72.0042 C201.2983,72.4442 201.4313,72.7912 201.6983,73.0442 C201.9653,73.2982 202.4713,73.5572 203.2183,73.8242 Z M211.498,78.6446 C211.658,78.5906 211.845,78.4986 212.058,78.3646 L212.738,79.4636 C212.138,79.9446 211.465,80.1846 210.718,80.1846 C209.931,80.1846 209.321,79.9516 208.888,79.4846 C208.455,79.0176 208.238,78.3916 208.238,77.6046 L208.238,70.7846 L206.818,70.7846 L206.818,69.4046 L208.238,69.4046 L208.238,67.0246 L209.998,66.8046 L209.998,69.4046 L212.038,69.4046 L211.858,70.7846 L209.998,70.7846 L209.998,77.6236 C209.998,78.3576 210.311,78.7246 210.938,78.7246 C211.151,78.7246 211.338,78.6986 211.498,78.6446 Z M217.5982,69.1847 C218.8512,69.1847 219.8212,69.6477 220.5082,70.5747 C221.1952,71.5007 221.5382,72.8647 221.5382,74.6637 C221.5382,76.3577 221.1882,77.7007 220.4882,78.6947 C219.7882,79.6877 218.8182,80.1847 217.5782,80.1847 C216.3382,80.1847 215.3712,79.6987 214.6782,78.7247 C213.9852,77.7507 213.6382,76.4047 213.6382,74.6847 C213.6382,72.9107 213.9852,71.5507 214.6782,70.6047 C215.3712,69.6587 216.3452,69.1847 217.5982,69.1847 Z M219.1582,77.8047 C219.5052,77.1637 219.6782,76.1177 219.6782,74.6637 C219.6782,73.2247 219.5052,72.1877 219.1582,71.5547 C218.8112,70.9207 218.2912,70.6047 217.5982,70.6047 C216.8912,70.6047 216.3652,70.9207 216.0182,71.5547 C215.6712,72.1877 215.4982,73.2317 215.4982,74.6847 C215.4982,76.1237 215.6712,77.1637 216.0182,77.8047 C216.3652,78.4447 216.8852,78.7647 217.5782,78.7647 C218.2842,78.7647 218.8112,78.4447 219.1582,77.8047 Z M228.1978,69.1846 C228.9578,69.1846 229.5648,69.4576 230.0178,70.0036 C230.4708,70.5506 230.6978,71.2846 230.6978,72.2046 L230.6978,79.9446 L228.9378,79.9446 L228.9378,72.4446 C228.9378,71.7646 228.8418,71.2816 228.6478,70.9946 C228.4548,70.7076 228.1648,70.5646 227.7778,70.5646 C227.0178,70.5646 226.3108,71.2176 225.6578,72.5246 L225.6578,79.9446 L223.8978,79.9446 L223.8978,69.4046 L225.4178,69.4046 L225.5578,70.9846 C225.9048,70.3976 226.2848,69.9516 226.6978,69.6446 C227.1118,69.3376 227.6118,69.1846 228.1978,69.1846 Z M234.1377,64.9248 C234.4707,64.9248 234.7387,65.0378 234.9377,65.2648 C235.1377,65.4908 235.2387,65.7648 235.2387,66.0838 C235.2387,66.2578 235.2147,66.4278 235.1677,66.5948 C235.1207,66.7608 235.0367,66.9978 234.9177,67.3048 L233.8377,70.0648 L232.8187,70.0648 L233.4977,67.1048 C233.1637,66.8518 232.9977,66.5308 232.9977,66.1448 C232.9977,65.7978 233.1007,65.5078 233.3077,65.2748 C233.5137,65.0408 233.7907,64.9248 234.1377,64.9248 Z M240.5371,73.8242 C241.4981,74.1712 242.2041,74.5842 242.6581,75.0642 C243.1111,75.5442 243.3381,76.1982 243.3381,77.0242 C243.3381,78.0242 243.0011,78.8012 242.3281,79.3542 C241.6541,79.9082 240.8181,80.1842 239.8181,80.1842 C238.4841,80.1842 237.3711,79.7242 236.4771,78.8042 L237.3971,77.8242 C238.1441,78.4772 238.9371,78.8042 239.7771,78.8042 C240.3101,78.8042 240.7381,78.6582 241.0581,78.3642 C241.3771,78.0712 241.5371,77.6582 241.5371,77.1242 C241.5371,76.7642 241.4771,76.4712 241.3571,76.2442 C241.2381,76.0172 241.0311,75.8112 240.7381,75.6242 C240.4441,75.4372 240.0171,75.2442 239.4571,75.0442 C238.5241,74.6982 237.8571,74.2882 237.4571,73.8142 C237.0581,73.3412 236.8571,72.7582 236.8571,72.0642 C236.8571,71.5312 236.9941,71.0442 237.2671,70.6042 C237.5411,70.1642 237.9241,69.8172 238.4181,69.5642 C238.9101,69.3112 239.4711,69.1842 240.0981,69.1842 C241.2581,69.1842 242.2511,69.5782 243.0781,70.3642 L242.3181,71.3852 C241.9441,71.1042 241.5841,70.8942 241.2381,70.7542 C240.8911,70.6142 240.5241,70.5442 240.1381,70.5442 C239.6711,70.5442 239.3011,70.6752 239.0271,70.9342 C238.7541,71.1942 238.6171,71.5512 238.6171,72.0042 C238.6171,72.4442 238.7511,72.7912 239.0171,73.0442 C239.2841,73.2982 239.7911,73.5572 240.5371,73.8242 Z M256.0977,73.7842 L256.0977,66.1642 L257.7967,66.1642 L257.7967,79.9442 L255.3767,79.9442 L251.1367,68.2042 C251.2167,69.1382 251.2807,69.9712 251.3267,70.7042 C251.3737,71.4372 251.3977,72.3572 251.3977,73.4642 L251.3977,79.9442 L249.6977,79.9442 L249.6977,66.1642 L252.1177,66.1642 L256.3577,77.9252 C256.3037,77.7242 256.2467,77.1782 256.1877,76.2842 C256.1267,75.3912 256.0977,74.5572 256.0977,73.7842 Z M263.9985,69.1844 C265.1575,69.1844 266.0465,69.6214 266.6685,70.4944 C267.2875,71.3684 267.5975,72.6584 267.5975,74.3644 C267.5975,74.6584 267.5845,74.9634 267.5575,75.2844 L262.0375,75.2844 C262.0895,76.5504 262.3005,77.4444 262.6685,77.9634 C263.0345,78.4844 263.5575,78.7444 264.2375,78.7444 C264.6775,78.7444 265.0705,78.6744 265.4185,78.5344 C265.7635,78.3944 266.1245,78.1714 266.4985,77.8644 L267.2775,78.9244 C266.3975,79.7644 265.3635,80.1844 264.1775,80.1844 C262.9235,80.1844 261.9515,79.7214 261.2575,78.7944 C260.5645,77.8684 260.2165,76.5314 260.2165,74.7844 C260.2165,73.0384 260.5465,71.6684 261.2075,70.6744 C261.8675,69.6814 262.7965,69.1844 263.9985,69.1844 Z M265.8975,73.9844 L265.8975,73.8444 C265.8975,72.6984 265.7445,71.8644 265.4375,71.3444 C265.1305,70.8244 264.6505,70.5644 263.9985,70.5644 C263.4105,70.5644 262.9515,70.8284 262.6175,71.3544 C262.2845,71.8804 262.0895,72.7574 262.0375,73.9844 L265.8975,73.9844 Z M270.7168,64.4043 C271.0768,64.4043 271.3628,64.5173 271.5768,64.7443 C271.7898,64.9713 271.8968,65.2643 271.8968,65.6243 C271.8968,65.9583 271.7868,66.2373 271.5668,66.4643 C271.3478,66.6913 271.0638,66.8043 270.7168,66.8043 C270.3698,66.8043 270.0868,66.6913 269.8668,66.4643 C269.6468,66.2373 269.5368,65.9583 269.5368,65.6243 C269.5368,65.2773 269.6468,64.9873 269.8668,64.7543 C270.0868,64.5213 270.3698,64.4043 270.7168,64.4043 Z M269.857,79.9446 L269.857,69.4046 L271.617,69.4046 L271.617,79.9446 L269.857,79.9446 Z M281.7172,69.8646 C281.4102,69.9976 281.0672,70.0836 280.6872,70.1236 C280.3062,70.1636 279.8242,70.1846 279.2372,70.1846 C280.2632,70.7446 280.7772,71.6376 280.7772,72.8646 C280.7772,73.9446 280.4762,74.8076 279.8772,75.4546 C279.2772,76.1016 278.4502,76.4246 277.3962,76.4246 C277.0102,76.4246 276.6572,76.3576 276.3372,76.2246 C276.2032,76.3306 276.0992,76.4746 276.0272,76.6546 C275.9532,76.8336 275.9172,77.0246 275.9172,77.2246 C275.9172,77.5176 275.9972,77.7476 276.1572,77.9136 C276.3172,78.0806 276.6032,78.1636 277.0172,78.1636 L278.1782,78.1636 C278.8302,78.1636 279.4042,78.2906 279.8962,78.5436 C280.3902,78.7976 280.7672,79.1416 281.0272,79.5746 C281.2872,80.0076 281.4172,80.4846 281.4172,81.0036 C281.4172,81.9636 281.0602,82.7346 280.3472,83.3146 C279.6342,83.8946 278.6032,84.1846 277.2582,84.1846 C275.8702,84.1846 274.8872,83.9136 274.3062,83.3736 C273.7262,82.8336 273.4372,82.0436 273.4372,81.0036 L274.9972,81.0036 C274.9972,81.6576 275.1572,82.1216 275.4762,82.3946 C275.7972,82.6666 276.3962,82.8046 277.2772,82.8046 C278.1312,82.8046 278.7442,82.6616 279.1172,82.3736 C279.4902,82.0876 279.6782,81.6706 279.6782,81.1236 C279.6782,80.0836 279.0632,79.5646 277.8372,79.5646 L277.0972,79.5646 C276.1372,79.5646 275.4372,79.3876 274.9972,79.0346 C274.5562,78.6816 274.3372,78.2046 274.3372,77.6046 C274.3372,76.9636 274.6832,76.3646 275.3772,75.8046 C274.3492,75.1776 273.8372,74.1916 273.8372,72.8446 C273.8372,71.7376 274.1642,70.8516 274.8172,70.1846 C275.4712,69.5176 276.3172,69.1846 277.3572,69.1846 C278.2902,69.1846 279.0232,69.1116 279.5562,68.9636 C280.0902,68.8176 280.6372,68.5906 281.1972,68.2846 L281.7172,69.8646 Z M278.6172,74.6846 C278.8962,74.3116 279.0372,73.6916 279.0372,72.8246 C279.0372,71.2376 278.4712,70.4446 277.3372,70.4446 C276.7502,70.4446 276.3102,70.6376 276.0172,71.0246 C275.7232,71.4116 275.5772,72.0176 275.5772,72.8446 C275.5772,73.5646 275.7302,74.1446 276.0372,74.5836 C276.3442,75.0246 276.7702,75.2446 277.3172,75.2446 C277.9042,75.2446 278.3372,75.0576 278.6172,74.6846 Z M287.5166,69.1846 C288.2776,69.1846 288.8826,69.4576 289.3366,70.0036 C289.7896,70.5506 290.0166,71.2846 290.0166,72.2046 L290.0166,79.9446 L288.2566,79.9446 L288.2566,72.4446 C288.2566,71.7646 288.1606,71.2816 287.9666,70.9946 C287.7736,70.7076 287.4836,70.5646 287.0966,70.5646 C286.3366,70.5646 285.6296,71.2176 284.9766,72.5246 L284.9766,79.9446 L283.2166,79.9446 L283.2166,65.1846 L284.9766,65.0036 L284.9766,70.8846 C285.3106,70.3246 285.6736,69.9016 286.0666,69.6146 C286.4596,69.3286 286.9436,69.1846 287.5166,69.1846 Z M297.0376,69.1842 C298.0496,69.1842 298.8396,69.6442 299.4066,70.5642 C299.9726,71.4842 300.2556,72.8512 300.2556,74.6642 C300.2556,75.8112 300.1176,76.7982 299.8356,77.6242 C299.5566,78.4512 299.1606,79.0842 298.6466,79.5242 C298.1326,79.9642 297.5376,80.1842 296.8566,80.1842 C296.4026,80.1842 295.9766,80.0672 295.5766,79.8342 C295.1756,79.6012 294.8306,79.2712 294.5376,78.8452 L294.4156,79.9442 L292.8566,79.9442 L292.8566,65.1842 L294.6176,65.0042 L294.6176,70.6842 C295.2436,69.6842 296.0496,69.1842 297.0376,69.1842 Z M296.4766,78.7842 C297.7556,78.7842 298.3966,77.4112 298.3966,74.6642 C298.3966,73.1582 298.2436,72.1012 297.9366,71.4942 C297.6286,70.8882 297.1896,70.5842 296.6176,70.5842 C295.8696,70.5842 295.2036,71.1242 294.6176,72.2042 L294.6176,77.4252 C294.8566,77.8382 295.1326,78.1682 295.4466,78.4142 C295.7596,78.6612 296.1036,78.7842 296.4766,78.7842 Z M306.0152,69.1847 C307.2692,69.1847 308.2392,69.6477 308.9262,70.5747 C309.6132,71.5007 309.9562,72.8647 309.9562,74.6637 C309.9562,76.3577 309.6062,77.7007 308.9062,78.6947 C308.2062,79.6877 307.2362,80.1847 305.9962,80.1847 C304.7562,80.1847 303.7892,79.6987 303.0962,78.7247 C302.4022,77.7507 302.0562,76.4047 302.0562,74.6847 C302.0562,72.9107 302.4022,71.5507 303.0962,70.6047 C303.7892,69.6587 304.7632,69.1847 306.0152,69.1847 Z M307.5762,77.8047 C307.9232,77.1637 308.0962,76.1177 308.0962,74.6637 C308.0962,73.2247 307.9232,72.1877 307.5762,71.5547 C307.2292,70.9207 306.7092,70.6047 306.0152,70.6047 C305.3092,70.6047 304.7832,70.9207 304.4352,71.5547 C304.0902,72.1877 303.9162,73.2317 303.9162,74.6847 C303.9162,76.1237 304.0902,77.1637 304.4352,77.8047 C304.7832,78.4447 305.3032,78.7647 305.9962,78.7647 C306.7032,78.7647 307.2292,78.4447 307.5762,77.8047 Z M313.9766,71.3643 C314.4696,69.9113 315.2636,69.1843 316.3566,69.1843 C316.6496,69.1843 316.9156,69.2243 317.1566,69.3043 L316.8566,71.0043 C316.5896,70.9373 316.3496,70.9043 316.1366,70.9043 C315.6166,70.9043 315.1896,71.1373 314.8566,71.6043 C314.5236,72.0713 314.2636,72.7843 314.0766,73.7443 L314.0766,79.9443 L312.3166,79.9443 L312.3166,69.4043 L313.8356,69.4043 L313.9766,71.3643 Z M323.0762,69.1846 C323.8362,69.1846 324.4432,69.4576 324.8962,70.0036 C325.3492,70.5506 325.5762,71.2846 325.5762,72.2046 L325.5762,79.9446 L323.8162,79.9446 L323.8162,72.4446 C323.8162,71.7646 323.7202,71.2816 323.5262,70.9946 C323.3332,70.7076 323.0432,70.5646 322.6562,70.5646 C321.8962,70.5646 321.1892,71.2176 320.5372,72.5246 L320.5372,79.9446 L318.7762,79.9446 L318.7762,65.1846 L320.5372,65.0036 L320.5372,70.8846 C320.8692,70.3246 321.2322,69.9016 321.6272,69.6146 C322.0192,69.3286 322.5032,69.1846 323.0762,69.1846 Z M331.816,69.1847 C333.069,69.1847 334.039,69.6477 334.727,70.5747 C335.412,71.5007 335.756,72.8647 335.756,74.6637 C335.756,76.3577 335.406,77.7007 334.706,78.6947 C334.006,79.6877 333.036,80.1847 331.796,80.1847 C330.557,80.1847 329.59,79.6987 328.897,78.7247 C328.203,77.7507 327.855,76.4047 327.855,74.6847 C327.855,72.9107 328.203,71.5507 328.897,70.6047 C329.59,69.6587 330.563,69.1847 331.816,69.1847 Z M333.376,77.8047 C333.723,77.1637 333.897,76.1177 333.897,74.6637 C333.897,73.2247 333.723,72.1877 333.376,71.5547 C333.029,70.9207 332.51,70.6047 331.816,70.6047 C331.109,70.6047 330.582,70.9207 330.236,71.5547 C329.889,72.1877 329.716,73.2317 329.716,74.6847 C329.716,76.1237 329.889,77.1637 330.236,77.8047 C330.582,78.4447 331.103,78.7647 331.796,78.7647 C332.502,78.7647 333.029,78.4447 333.376,77.8047 Z M341.5152,69.1847 C342.7692,69.1847 343.7382,69.6477 344.4262,70.5747 C345.1122,71.5007 345.4552,72.8647 345.4552,74.6637 C345.4552,76.3577 345.1052,77.7007 344.4062,78.6947 C343.7052,79.6877 342.7362,80.1847 341.4962,80.1847 C340.2562,80.1847 339.2892,79.6987 338.5962,78.7247 C337.9022,77.7507 337.5552,76.4047 337.5552,74.6847 C337.5552,72.9107 337.9022,71.5507 338.5962,70.6047 C339.2892,69.6587 340.2622,69.1847 341.5152,69.1847 Z M343.0762,77.8047 C343.4222,77.1637 343.5962,76.1177 343.5962,74.6637 C343.5962,73.2247 343.4222,72.1877 343.0762,71.5547 C342.7282,70.9207 342.2092,70.6047 341.5152,70.6047 C340.8082,70.6047 340.2822,70.9207 339.9352,71.5547 C339.5892,72.1877 339.4162,73.2317 339.4162,74.6847 C339.4162,76.1237 339.5892,77.1637 339.9352,77.8047 C340.2822,78.4447 340.8032,78.7647 341.4962,78.7647 C342.2022,78.7647 342.7282,78.4447 343.0762,77.8047 Z M352.9551,70.4042 L352.9551,64.9642 L354.7151,65.1642 L354.7151,79.9442 L353.1551,79.9442 L353.0351,78.6042 C352.4081,79.6582 351.6081,80.1842 350.6351,80.1842 C349.5421,80.1842 348.7051,79.7012 348.1251,78.7342 C347.5451,77.7672 347.2561,76.4312 347.2561,74.7242 C347.2561,73.6182 347.4021,72.6442 347.6951,71.8052 C347.9881,70.9642 348.3951,70.3172 348.9161,69.8642 C349.4351,69.4112 350.0291,69.1842 350.6951,69.1842 C351.6151,69.1842 352.3691,69.5912 352.9551,70.4042 Z M352.9551,77.2842 L352.9551,71.9442 C352.4081,71.0382 351.7751,70.5842 351.0561,70.5842 C350.4411,70.5842 349.9651,70.9182 349.6251,71.5842 C349.2851,72.2512 349.1151,73.2842 349.1151,74.6842 C349.1151,77.4182 349.7351,78.7842 350.9761,78.7842 C351.7351,78.7842 352.3951,78.2842 352.9551,77.2842 Z M369.1748,66.1641 L371.5958,66.1641 L372.5158,79.9441 L370.7948,79.9441 L370.4358,73.6851 C370.2618,71.0981 370.1878,69.2111 370.2148,68.0241 L367.8748,78.3851 L366.1748,78.3851 L363.7148,68.0041 L363.7348,68.9251 C363.7348,69.9641 363.6818,71.5911 363.5748,73.8051 L363.2348,79.9441 L361.5158,79.9441 L362.4548,66.1641 L364.8148,66.1641 L367.0548,76.2651 L369.1748,66.1641 Z M381.315,78.5346 C381.422,78.7136 381.596,78.8576 381.836,78.9636 L381.455,80.1846 C380.962,80.1046 380.572,79.9476 380.285,79.7136 C379.998,79.4816 379.795,79.1306 379.676,78.6636 C379.102,79.6776 378.262,80.1846 377.155,80.1846 C376.289,80.1846 375.598,79.8946 375.086,79.3146 C374.572,78.7346 374.315,77.9636 374.315,77.0036 C374.315,75.8846 374.662,75.0276 375.355,74.4346 C376.049,73.8406 377.055,73.5436 378.375,73.5436 L379.415,73.5436 L379.415,72.5836 C379.415,71.8916 379.278,71.3846 379.006,71.0646 C378.732,70.7446 378.309,70.5836 377.735,70.5836 C377.055,70.5836 376.262,70.7646 375.355,71.1236 L374.915,69.8846 C375.995,69.4176 377.008,69.1846 377.955,69.1846 C379.035,69.1846 379.838,69.4746 380.365,70.0546 C380.892,70.6346 381.155,71.4516 381.155,72.5036 L381.155,77.7046 C381.155,78.0786 381.209,78.3546 381.315,78.5346 Z M379.415,77.1846 L379.415,74.7246 L378.575,74.7246 C377.735,74.7246 377.118,74.9046 376.725,75.2646 C376.332,75.6236 376.135,76.1776 376.135,76.9246 C376.135,77.5646 376.256,78.0476 376.495,78.3736 C376.735,78.7016 377.075,78.8646 377.516,78.8646 C378.342,78.8646 378.975,78.3046 379.415,77.1846 Z M391.2758,69.8646 C390.9678,69.9976 390.6248,70.0836 390.2438,70.1236 C389.8648,70.1636 389.3808,70.1846 388.7948,70.1846 C389.8208,70.7446 390.3348,71.6376 390.3348,72.8646 C390.3348,73.9446 390.0348,74.8076 389.4348,75.4546 C388.8348,76.1016 388.0078,76.4246 386.9548,76.4246 C386.5688,76.4246 386.2148,76.3576 385.8948,76.2246 C385.7618,76.3306 385.6578,76.4746 385.5848,76.6546 C385.5118,76.8336 385.4748,77.0246 385.4748,77.2246 C385.4748,77.5176 385.5548,77.7476 385.7148,77.9136 C385.8748,78.0806 386.1608,78.1636 386.5738,78.1636 L387.7348,78.1636 C388.3878,78.1636 388.9608,78.2906 389.4548,78.5436 C389.9468,78.7976 390.3238,79.1416 390.5848,79.5746 C390.8448,80.0076 390.9748,80.4846 390.9748,81.0036 C390.9748,81.9636 390.6168,82.7346 389.9038,83.3146 C389.1918,83.8946 388.1608,84.1846 386.8148,84.1846 C385.4278,84.1846 384.4458,83.9136 383.8648,83.3736 C383.2848,82.8336 382.9938,82.0436 382.9938,81.0036 L384.5548,81.0036 C384.5548,81.6576 384.7148,82.1216 385.0348,82.3946 C385.3558,82.6666 385.9548,82.8046 386.8348,82.8046 C387.6878,82.8046 388.3008,82.6616 388.6748,82.3736 C389.0478,82.0876 389.2348,81.6706 389.2348,81.1236 C389.2348,80.0836 388.6208,79.5646 387.3948,79.5646 L386.6538,79.5646 C385.6958,79.5646 384.9938,79.3876 384.5548,79.0346 C384.1148,78.6816 383.8948,78.2046 383.8948,77.6046 C383.8948,76.9636 384.2408,76.3646 384.9348,75.8046 C383.9078,75.1776 383.3948,74.1916 383.3948,72.8446 C383.3948,71.7376 383.7208,70.8516 384.3748,70.1846 C385.0278,69.5176 385.8748,69.1846 386.9138,69.1846 C387.8478,69.1846 388.5818,69.1116 389.1148,68.9636 C389.6488,68.8176 390.1958,68.5906 390.7548,68.2846 L391.2758,69.8646 Z M388.1748,74.6846 C388.4548,74.3116 388.5948,73.6916 388.5948,72.8246 C388.5948,71.2376 388.0278,70.4446 386.8948,70.4446 C386.3088,70.4446 385.8668,70.6376 385.5738,71.0246 C385.2808,71.4116 385.1348,72.0176 385.1348,72.8446 C385.1348,73.5646 385.2878,74.1446 385.5948,74.5836 C385.9018,75.0246 386.3278,75.2446 386.8748,75.2446 C387.4608,75.2446 387.8948,75.0576 388.1748,74.6846 Z M399.0143,78.5346 C399.1213,78.7136 399.2953,78.8576 399.5353,78.9636 L399.1543,80.1846 C398.6613,80.1046 398.2713,79.9476 397.9843,79.7136 C397.6973,79.4816 397.4943,79.1306 397.3753,78.6636 C396.8013,79.6776 395.9613,80.1846 394.8543,80.1846 C393.9883,80.1846 393.2973,79.8946 392.7853,79.3146 C392.2713,78.7346 392.0143,77.9636 392.0143,77.0036 C392.0143,75.8846 392.3613,75.0276 393.0543,74.4346 C393.7483,73.8406 394.7543,73.5436 396.0743,73.5436 L397.1143,73.5436 L397.1143,72.5836 C397.1143,71.8916 396.9773,71.3846 396.7053,71.0646 C396.4313,70.7446 396.0083,70.5836 395.4343,70.5836 C394.7543,70.5836 393.9613,70.7646 393.0543,71.1236 L392.6143,69.8846 C393.6943,69.4176 394.7073,69.1846 395.6543,69.1846 C396.7343,69.1846 397.5373,69.4746 398.0643,70.0546 C398.5913,70.6346 398.8543,71.4516 398.8543,72.5036 L398.8543,77.7046 C398.8543,78.0786 398.9083,78.3546 399.0143,78.5346 Z M397.1143,77.1846 L397.1143,74.7246 L396.2743,74.7246 C395.4343,74.7246 394.8173,74.9046 394.4243,75.2646 C394.0313,75.6236 393.8343,76.1776 393.8343,76.9246 C393.8343,77.5646 393.9553,78.0476 394.1943,78.3736 C394.4343,78.7016 394.7743,78.8646 395.2153,78.8646 C396.0413,78.8646 396.6743,78.3046 397.1143,77.1846 Z M407.0937,70.7647 L402.5547,78.4637 L407.1347,78.4637 L406.9547,79.9447 L400.6947,79.9447 L400.6947,78.6237 L405.2347,70.9047 L401.0737,70.9047 L401.0737,69.4047 L407.0937,69.4047 L407.0937,70.7647 Z M409.8945,64.4043 C410.2535,64.4043 410.5405,64.5173 410.7535,64.7443 C410.9665,64.9713 411.0745,65.2643 411.0745,65.6243 C411.0745,65.9583 410.9645,66.2373 410.7445,66.4643 C410.5245,66.6913 410.2405,66.8043 409.8945,66.8043 C409.5465,66.8043 409.2635,66.6913 409.0445,66.4643 C408.8245,66.2373 408.7145,65.9583 408.7145,65.6243 C408.7145,65.2773 408.8245,64.9873 409.0445,64.7543 C409.2635,64.5213 409.5465,64.4043 409.8945,64.4043 Z M409.034,79.9446 L409.034,69.4046 L410.795,69.4046 L410.795,79.9446 L409.034,79.9446 Z M418.0137,69.1846 C418.7747,69.1846 419.3807,69.4576 419.8337,70.0036 C420.2867,70.5506 420.5137,71.2846 420.5137,72.2046 L420.5137,79.9446 L418.7537,79.9446 L418.7537,72.4446 C418.7537,71.7646 418.6587,71.2816 418.4647,70.9946 C418.2717,70.7076 417.9807,70.5646 417.5937,70.5646 C416.8337,70.5646 416.1267,71.2176 415.4747,72.5246 L415.4747,79.9446 L413.7147,79.9446 L413.7147,69.4046 L415.2347,69.4046 L415.3747,70.9846 C415.7207,70.3976 416.1017,69.9516 416.5137,69.6446 C416.9277,69.3376 417.4277,69.1846 418.0137,69.1846 Z M430.1736,74.3644 C430.1736,74.6584 430.1606,74.9634 430.1346,75.2844 L424.6146,75.2844 C424.6666,76.5504 424.8766,77.4444 425.2446,77.9634 C425.6116,78.4844 426.1346,78.7444 426.8146,78.7444 C427.2536,78.7444 427.6466,78.6744 427.9946,78.5344 C428.3406,78.3944 428.7016,78.1714 429.0746,77.8644 L429.8536,78.9244 C428.9746,79.7644 427.9406,80.1844 426.7536,80.1844 C425.4996,80.1844 424.5276,79.7214 423.8336,78.7944 C423.1406,77.8684 422.7936,76.5314 422.7936,74.7844 C422.7936,73.0384 423.1236,71.6684 423.7846,70.6744 C424.4436,69.6814 425.3736,69.1844 426.5746,69.1844 C427.7346,69.1844 428.6236,69.6214 429.2446,70.4944 C429.8646,71.3684 430.1736,72.6584 430.1736,74.3644 Z M428.4746,73.9844 L428.4746,73.8444 C428.4746,72.6984 428.3206,71.8644 428.0136,71.3444 C427.7066,70.8244 427.2266,70.5644 426.5746,70.5644 C425.9876,70.5644 425.5276,70.8284 425.1936,71.3544 C424.8616,71.8804 424.6666,72.7574 424.6146,73.9844 L428.4746,73.9844 Z"/>
    <path fill="#3DB049" d="M246.9512,27.2168 C250.8872,28.7048 253.8632,30.5528 255.8802,32.7608 C257.8962,34.9688 258.9042,38.1128 258.9042,42.1928 C258.9042,44.8328 258.2922,47.2688 257.0682,49.4998 C255.8442,51.7328 254.1032,53.5088 251.8472,54.8278 C249.5922,56.1488 246.9752,56.8088 244.0002,56.8088 C241.0232,56.8088 238.3842,56.2558 236.0802,55.1528 C233.7752,54.0488 231.6872,52.4648 229.8162,50.4008 L233.3442,46.6558 C235.0232,48.1938 236.6912,49.3688 238.3472,50.1848 C240.0042,51.0008 241.8402,51.4078 243.8552,51.4078 C246.3512,51.4078 248.3442,50.5928 249.8322,48.9598 C251.3182,47.3288 252.0642,45.1208 252.0642,42.3358 C252.0642,39.9368 251.4632,38.0168 250.2642,36.5758 C249.0632,35.1368 246.8322,33.8168 243.5682,32.6158 C239.3912,31.0318 236.3322,29.1128 234.3882,26.8568 C232.4432,24.6008 231.4722,21.7698 231.4722,18.3608 C231.4722,16.0088 232.0482,13.8488 233.1992,11.8798 C234.3512,9.9128 235.9592,8.3638 238.0232,7.2368 C240.0872,6.1098 242.4162,5.5438 245.0082,5.5438 C247.6462,5.5438 249.9872,6.0128 252.0272,6.9478 C254.0672,7.8848 255.9512,9.3138 257.6802,11.2328 L254.2232,14.9768 C252.7352,13.5358 251.2712,12.4918 249.8322,11.8448 C248.3912,11.1958 246.8072,10.8718 245.0802,10.8718 C243.0152,10.8718 241.3472,11.5318 240.0762,12.8528 C238.8032,14.1728 238.1682,15.9118 238.1682,18.0718 C238.1682,20.1858 238.7792,21.9128 240.0042,23.2558 C241.2282,24.6008 243.5432,25.9198 246.9512,27.2168 Z M277.6955,17.2083 C282.2075,17.2083 285.6995,18.8773 288.1715,22.2123 C290.6435,25.5493 291.8795,30.4563 291.8795,36.9363 C291.8795,43.0323 290.6195,47.8693 288.0995,51.4443 C285.5805,55.0203 282.0875,56.8083 277.6235,56.8083 C273.1605,56.8083 269.6795,55.0563 267.1835,51.5533 C264.6875,48.0493 263.4395,43.2003 263.4395,37.0093 C263.4395,30.6253 264.6875,25.7293 267.1835,22.3203 C269.6795,18.9133 273.1835,17.2083 277.6955,17.2083 Z M283.3115,48.2403 C284.5595,45.9363 285.1835,42.1693 285.1835,36.9363 C285.1835,31.7523 284.5595,28.0203 283.3115,25.7403 C282.0625,23.4613 280.1915,22.3203 277.6955,22.3203 C275.1505,22.3203 273.2555,23.4613 272.0075,25.7403 C270.7585,28.0203 270.1355,31.7773 270.1355,37.0093 C270.1355,42.1923 270.7585,45.9363 272.0075,48.2403 C273.2555,50.5443 275.1265,51.6963 277.6235,51.6963 C280.1675,51.6963 282.0625,50.5443 283.3115,48.2403 Z M317.0781,45.4326 L317.0781,17.9996 L323.4141,17.9996 L323.4141,55.9446 L317.9421,55.9446 L317.5111,50.6166 C316.3101,52.6806 314.9551,54.2286 313.4421,55.2606 C311.9311,56.2916 310.1661,56.8086 308.1501,56.8086 C305.4141,56.8086 303.2301,55.8716 301.5991,53.9996 C299.9671,52.1276 299.1501,49.6806 299.1501,46.6566 L299.1501,17.9996 L305.4861,17.9996 L305.4861,46.0086 C305.4861,49.8966 306.8541,51.8406 309.5911,51.8406 C311.1751,51.8406 312.5661,51.2766 313.7661,50.1486 C314.9661,49.0216 316.0701,47.4486 317.0781,45.4326 Z M345.3018,51.2647 C345.8778,51.0737 346.5488,50.7367 347.3188,50.2557 L349.7658,54.2167 C347.6058,55.9447 345.1818,56.8087 342.4938,56.8087 C339.6608,56.8087 337.4648,55.9677 335.9058,54.2877 C334.3458,52.6087 333.5668,50.3537 333.5668,47.5207 L333.5668,22.9687 L328.4538,22.9687 L328.4538,17.9997 L333.5668,17.9997 L333.5668,9.4327 L339.9028,8.6407 L339.9028,17.9997 L347.2458,17.9997 L346.5978,22.9687 L339.9028,22.9687 L339.9028,47.5927 C339.9028,50.2327 341.0298,51.5527 343.2848,51.5527 C344.0528,51.5527 344.7268,51.4567 345.3018,51.2647 Z M369.5654,17.208 C372.3014,17.208 374.4854,18.192 376.1174,20.16 C377.7494,22.129 378.5654,24.769 378.5654,28.08 L378.5654,55.944 L372.2294,55.944 L372.2294,28.944 C372.2294,26.496 371.8804,24.757 371.1854,23.725 C370.4894,22.692 369.4454,22.177 368.0534,22.177 C365.3174,22.177 362.7734,24.528 360.4214,29.232 L360.4214,55.944 L354.0864,55.944 L354.0864,2.809 L360.4214,2.16 L360.4214,23.328 C361.6214,21.312 362.9294,19.789 364.3454,18.756 C365.7604,17.725 367.5014,17.208 369.5654,17.208 Z M390.9492,1.42108547e-14 C392.2452,1.42108547e-14 393.2772,0.409 394.0452,1.225 C394.8122,2.041 395.1972,3.097 395.1972,4.393 C395.1972,5.593 394.8012,6.601 394.0102,7.416 C393.2172,8.233 392.1972,8.641 390.9492,8.641 C389.7002,8.641 388.6812,8.233 387.8882,7.416 C387.0972,6.601 386.7012,5.593 386.7012,4.393 C386.7012,3.145 387.0972,2.101 387.8882,1.261 C388.6812,0.421 389.7002,1.42108547e-14 390.9492,1.42108547e-14 Z M387.854,55.9446 L387.854,18.0006 L394.19,18.0006 L394.19,55.9446 L387.854,55.9446 Z M427.9354,35.8563 C427.9354,36.9133 427.8874,38.0163 427.7924,39.1683 L407.9204,39.1683 C408.1114,43.7293 408.8674,46.9443 410.1874,48.8163 C411.5074,50.6883 413.3924,51.6243 415.8394,51.6243 C417.4234,51.6243 418.8394,51.3723 420.0874,50.8683 C421.3364,50.3643 422.6304,49.5613 423.9764,48.4563 L426.7834,52.2723 C423.6154,55.2963 419.8954,56.8083 415.6244,56.8083 C411.1114,56.8083 407.6074,55.1403 405.1114,51.8043 C402.6154,48.4683 401.3684,43.6573 401.3684,37.3683 C401.3684,31.0813 402.5564,26.1483 404.9314,22.5723 C407.3084,18.9973 410.6564,17.2083 414.9764,17.2083 C419.1524,17.2083 422.3554,18.7813 424.5874,21.9253 C426.8204,25.0683 427.9354,29.7133 427.9354,35.8563 Z M421.8164,34.4883 L421.8164,33.9843 C421.8164,29.8563 421.2634,26.8563 420.1604,24.9843 C419.0544,23.1123 417.3274,22.1763 414.9764,22.1763 C412.8634,22.1763 411.2074,23.1253 410.0074,25.0203 C408.8074,26.9173 408.1114,30.0723 407.9204,34.4883 L421.8164,34.4883 Z"/>
  </g>
</svg>
