<svg xmlns="http://www.w3.org/2000/svg" width="428" height="72" viewBox="0 0 428 72">
  <g fill="none" fill-rule="evenodd">
    <path fill="#424242" d="M21.9956,50.292 C23.2196,49.645 24.4796,48.721 25.7756,47.521 L29.3036,51.336 C27.8636,52.92 26.1596,54.229 24.1916,55.261 C22.2236,56.292 20.0156,56.809 17.5676,56.809 C12.2396,56.809 7.9796,54.648 4.7876,50.328 C1.5956,46.009 -0.0004,39.601 -0.0004,31.105 C-0.0004,25.393 0.7556,20.628 2.2676,16.813 C3.7796,12.996 5.8426,10.165 8.4596,8.316 C11.0756,6.469 14.0396,5.544 17.3516,5.544 C19.7036,5.544 21.7676,5.94 23.5436,6.732 C25.3186,7.524 27.0956,8.737 28.8716,10.368 L25.4876,14.328 C24.1436,13.129 22.8476,12.253 21.5996,11.7 C20.3506,11.149 18.9826,10.872 17.4956,10.872 C10.4396,10.872 6.9116,17.617 6.9116,31.105 C6.9116,44.545 10.5116,51.265 17.7116,51.265 C19.3426,51.265 20.7716,50.94 21.9956,50.292 Z M56.3747,50.8678 C56.7587,51.5168 57.3827,52.0318 58.2467,52.4158 L56.8787,56.8088 C55.1027,56.5208 53.6987,55.9558 52.6667,55.1158 C51.6347,54.2778 50.9027,53.0168 50.4707,51.3358 C48.4067,54.9848 45.3827,56.8088 41.3987,56.8088 C38.2777,56.8088 35.7937,55.7648 33.9467,53.6768 C32.0987,51.5878 31.1747,48.8168 31.1747,45.3608 C31.1747,41.3278 32.4227,38.2448 34.9187,36.1088 C37.4137,33.9728 41.0387,32.9048 45.7907,32.9048 L49.5347,32.9048 L49.5347,29.4478 C49.5347,26.9528 49.0417,25.1278 48.0587,23.9768 C47.0747,22.8238 45.5497,22.2478 43.4867,22.2478 C41.0387,22.2478 38.1827,22.8968 34.9187,24.1928 L33.3347,19.7288 C37.2227,18.0488 40.8697,17.2078 44.2787,17.2078 C48.1667,17.2078 51.0577,18.2518 52.9547,20.3408 C54.8507,22.4288 55.7987,25.3688 55.7987,29.1598 L55.7987,47.8798 C55.7987,49.2248 55.9907,50.2208 56.3747,50.8678 Z M49.5347,46.0088 L49.5347,37.1528 L46.5107,37.1528 C43.4867,37.1528 41.2657,37.8008 39.8507,39.0968 C38.4347,40.3928 37.7267,42.3848 37.7267,45.0718 C37.7267,47.3758 38.1587,49.1168 39.0227,50.2918 C39.8867,51.4688 41.1107,52.0568 42.6947,52.0568 C45.6707,52.0568 47.9507,50.0398 49.5347,46.0088 Z M83.0859,45.4326 L83.0859,17.9996 L89.4219,17.9996 L89.4219,55.9446 L83.9499,55.9446 L83.5179,50.6166 C82.3169,52.6806 80.9619,54.2286 79.4499,55.2606 C77.9379,56.2916 76.1739,56.8086 74.1579,56.8086 C71.4219,56.8086 69.2369,55.8716 67.6059,53.9996 C65.9739,52.1276 65.1579,49.6806 65.1579,46.6566 L65.1579,17.9996 L71.4939,17.9996 L71.4939,46.0086 C71.4939,49.8966 72.8619,51.8406 75.5979,51.8406 C77.1819,51.8406 78.5739,51.2766 79.7739,50.1486 C80.9729,49.0216 82.0779,47.4486 83.0859,45.4326 Z M124.8451,19.6558 C123.7401,20.1368 122.5051,20.4478 121.1371,20.5928 C119.7691,20.7368 118.0291,20.8088 115.9171,20.8088 C119.6131,22.8238 121.4611,26.0408 121.4611,30.4558 C121.4611,34.3448 120.3811,37.4528 118.2211,39.7798 C116.0611,42.1098 113.0841,43.2728 109.2931,43.2728 C107.9001,43.2728 106.6291,43.0318 105.4771,42.5528 C104.9971,42.9378 104.6241,43.4518 104.3611,44.1008 C104.0971,44.7478 103.9651,45.4328 103.9651,46.1528 C103.9651,47.2088 104.2531,48.0368 104.8291,48.6368 C105.4051,49.2378 106.4371,49.5358 107.9251,49.5358 L112.1011,49.5358 C114.4531,49.5358 116.5171,49.9928 118.2931,50.9048 C120.0681,51.8168 121.4251,53.0528 122.3611,54.6128 C123.2971,56.1718 123.7651,57.8888 123.7651,59.7608 C123.7651,63.2168 122.4801,65.9878 119.9131,68.0758 C117.3451,70.1638 113.6371,71.2078 108.7891,71.2078 C103.7961,71.2078 100.2571,70.2368 98.1691,68.2918 C96.0811,66.3488 95.0371,63.5038 95.0371,59.7608 L100.6531,59.7608 C100.6531,62.1118 101.2291,63.7798 102.3811,64.7648 C103.5331,65.7478 105.6931,66.2398 108.8611,66.2398 C111.9331,66.2398 114.1411,65.7238 115.4851,64.6928 C116.8291,63.6588 117.5011,62.1598 117.5011,60.1928 C117.5011,56.4478 115.2931,54.5758 110.8771,54.5758 L108.2131,54.5758 C104.7571,54.5758 102.2371,53.9408 100.6531,52.6678 C99.0691,51.3978 98.2771,49.6808 98.2771,47.5208 C98.2771,45.2168 99.5251,43.0568 102.0211,41.0398 C98.3241,38.7848 96.4771,35.2338 96.4771,30.3848 C96.4771,26.4008 97.6531,23.2088 100.0051,20.8088 C102.3561,18.4088 105.4051,17.2078 109.1491,17.2078 C112.5081,17.2078 115.1491,16.9458 117.0691,16.4158 C118.9881,15.8888 120.9571,15.0728 122.9731,13.9688 L124.8451,19.6558 Z M113.6851,37.0088 C114.6931,35.6648 115.1971,33.4328 115.1971,30.3128 C115.1971,24.6008 113.1561,21.7438 109.0771,21.7438 C106.9641,21.7438 105.3801,22.4408 104.3251,23.8318 C103.2691,25.2248 102.7411,27.4088 102.7411,30.3848 C102.7411,32.9768 103.2921,35.0648 104.3971,36.6488 C105.5011,38.2328 107.0371,39.0248 109.0051,39.0248 C111.1171,39.0248 112.6771,38.3528 113.6851,37.0088 Z M144.7886,17.208 C147.5246,17.208 149.7086,18.192 151.3406,20.16 C152.9726,22.129 153.7886,24.769 153.7886,28.08 L153.7886,55.944 L147.4526,55.944 L147.4526,28.944 C147.4526,26.496 147.1036,24.757 146.4086,23.725 C145.7126,22.692 144.6686,22.177 143.2766,22.177 C140.5406,22.177 137.9966,24.528 135.6446,29.232 L135.6446,55.944 L129.3086,55.944 L129.3086,2.809 L135.6446,2.16 L135.6446,23.328 C136.8436,21.312 138.1526,19.789 139.5686,18.756 C140.9836,17.725 142.7246,17.208 144.7886,17.208 Z M177.4043,50.2559 L179.8523,54.2169 C177.6923,55.9439 175.2683,56.8089 172.5803,56.8089 C169.7473,56.8089 167.5513,55.9679 165.9923,54.2879 C164.4323,52.6089 163.6523,50.3539 163.6523,47.5209 L163.6523,22.9689 L158.5403,22.9689 L158.5403,17.9999 L163.6523,17.9999 L163.6523,9.4329 L169.9883,8.6409 L169.9883,17.9999 L177.3323,17.9999 L176.6843,22.9689 L169.9883,22.9689 L169.9883,47.5929 C169.9883,50.2329 171.1153,51.5529 173.3723,51.5529 C174.1393,51.5529 174.8123,51.4569 175.3883,51.2649 C175.9643,51.0729 176.6353,50.7359 177.4043,50.2559 Z"/>
    <path fill="#9E9E9E" d="M184.008,55.9446 L184.008,6.3366 L190.56,6.3366 L190.56,55.9446 L184.008,55.9446 Z M222.3833,20.1602 C224.0143,22.1292 224.8313,24.7682 224.8313,28.0802 L224.8313,55.9442 L218.4953,55.9442 L218.4953,28.9442 C218.4953,26.4962 218.1463,24.7572 217.4513,23.7242 C216.7553,22.6922 215.7113,22.1772 214.3193,22.1772 C211.5833,22.1772 209.0383,24.5282 206.6873,29.2322 L206.6873,55.9442 L200.3513,55.9442 L200.3513,18.0002 L205.8233,18.0002 L206.3273,23.6882 C207.5743,21.5772 208.9433,19.9692 210.4313,18.8642 C211.9183,17.7612 213.7183,17.2082 215.8313,17.2082 C218.5673,17.2082 220.7513,18.1922 222.3833,20.1602 Z"/>
    <path fill="#3DB049" d="M246.9512,27.2168 C250.8872,28.7048 253.8632,30.5528 255.8802,32.7608 C257.8962,34.9688 258.9042,38.1128 258.9042,42.1928 C258.9042,44.8328 258.2922,47.2688 257.0682,49.4998 C255.8442,51.7328 254.1032,53.5088 251.8472,54.8278 C249.5922,56.1488 246.9752,56.8088 244.0002,56.8088 C241.0232,56.8088 238.3842,56.2558 236.0802,55.1528 C233.7752,54.0488 231.6872,52.4648 229.8162,50.4008 L233.3442,46.6558 C235.0232,48.1938 236.6912,49.3688 238.3472,50.1848 C240.0042,51.0008 241.8402,51.4078 243.8552,51.4078 C246.3512,51.4078 248.3442,50.5928 249.8322,48.9598 C251.3182,47.3288 252.0642,45.1208 252.0642,42.3358 C252.0642,39.9368 251.4632,38.0168 250.2642,36.5758 C249.0632,35.1368 246.8322,33.8168 243.5682,32.6158 C239.3912,31.0318 236.3322,29.1128 234.3882,26.8568 C232.4432,24.6008 231.4722,21.7698 231.4722,18.3608 C231.4722,16.0088 232.0482,13.8488 233.1992,11.8798 C234.3512,9.9128 235.9592,8.3638 238.0232,7.2368 C240.0872,6.1098 242.4162,5.5438 245.0082,5.5438 C247.6462,5.5438 249.9872,6.0128 252.0272,6.9478 C254.0672,7.8848 255.9512,9.3138 257.6802,11.2328 L254.2232,14.9768 C252.7352,13.5358 251.2712,12.4918 249.8322,11.8448 C248.3912,11.1958 246.8072,10.8718 245.0802,10.8718 C243.0152,10.8718 241.3472,11.5318 240.0762,12.8528 C238.8032,14.1728 238.1682,15.9118 238.1682,18.0718 C238.1682,20.1858 238.7792,21.9128 240.0042,23.2558 C241.2282,24.6008 243.5432,25.9198 246.9512,27.2168 Z M277.6955,17.2083 C282.2075,17.2083 285.6995,18.8773 288.1715,22.2123 C290.6435,25.5493 291.8795,30.4563 291.8795,36.9363 C291.8795,43.0323 290.6195,47.8693 288.0995,51.4443 C285.5805,55.0203 282.0875,56.8083 277.6235,56.8083 C273.1605,56.8083 269.6795,55.0563 267.1835,51.5533 C264.6875,48.0493 263.4395,43.2003 263.4395,37.0093 C263.4395,30.6253 264.6875,25.7293 267.1835,22.3203 C269.6795,18.9133 273.1835,17.2083 277.6955,17.2083 Z M283.3115,48.2403 C284.5595,45.9363 285.1835,42.1693 285.1835,36.9363 C285.1835,31.7523 284.5595,28.0203 283.3115,25.7403 C282.0625,23.4613 280.1915,22.3203 277.6955,22.3203 C275.1505,22.3203 273.2555,23.4613 272.0075,25.7403 C270.7585,28.0203 270.1355,31.7773 270.1355,37.0093 C270.1355,42.1923 270.7585,45.9363 272.0075,48.2403 C273.2555,50.5443 275.1265,51.6963 277.6235,51.6963 C280.1675,51.6963 282.0625,50.5443 283.3115,48.2403 Z M317.0781,45.4326 L317.0781,17.9996 L323.4141,17.9996 L323.4141,55.9446 L317.9421,55.9446 L317.5111,50.6166 C316.3101,52.6806 314.9551,54.2286 313.4421,55.2606 C311.9311,56.2916 310.1661,56.8086 308.1501,56.8086 C305.4141,56.8086 303.2301,55.8716 301.5991,53.9996 C299.9671,52.1276 299.1501,49.6806 299.1501,46.6566 L299.1501,17.9996 L305.4861,17.9996 L305.4861,46.0086 C305.4861,49.8966 306.8541,51.8406 309.5911,51.8406 C311.1751,51.8406 312.5661,51.2766 313.7661,50.1486 C314.9661,49.0216 316.0701,47.4486 317.0781,45.4326 Z M345.3018,51.2647 C345.8778,51.0737 346.5488,50.7367 347.3188,50.2557 L349.7658,54.2167 C347.6058,55.9447 345.1818,56.8087 342.4938,56.8087 C339.6608,56.8087 337.4648,55.9677 335.9058,54.2877 C334.3458,52.6087 333.5668,50.3537 333.5668,47.5207 L333.5668,22.9687 L328.4538,22.9687 L328.4538,17.9997 L333.5668,17.9997 L333.5668,9.4327 L339.9028,8.6407 L339.9028,17.9997 L347.2458,17.9997 L346.5978,22.9687 L339.9028,22.9687 L339.9028,47.5927 C339.9028,50.2327 341.0298,51.5527 343.2848,51.5527 C344.0528,51.5527 344.7268,51.4567 345.3018,51.2647 Z M369.5654,17.208 C372.3014,17.208 374.4854,18.192 376.1174,20.16 C377.7494,22.129 378.5654,24.769 378.5654,28.08 L378.5654,55.944 L372.2294,55.944 L372.2294,28.944 C372.2294,26.496 371.8804,24.757 371.1854,23.725 C370.4894,22.692 369.4454,22.177 368.0534,22.177 C365.3174,22.177 362.7734,24.528 360.4214,29.232 L360.4214,55.944 L354.0864,55.944 L354.0864,2.809 L360.4214,2.16 L360.4214,23.328 C361.6214,21.312 362.9294,19.789 364.3454,18.756 C365.7604,17.725 367.5014,17.208 369.5654,17.208 Z M390.9492,1.42108547e-14 C392.2452,1.42108547e-14 393.2772,0.409 394.0452,1.225 C394.8122,2.041 395.1972,3.097 395.1972,4.393 C395.1972,5.593 394.8012,6.601 394.0102,7.416 C393.2172,8.233 392.1972,8.641 390.9492,8.641 C389.7002,8.641 388.6812,8.233 387.8882,7.416 C387.0972,6.601 386.7012,5.593 386.7012,4.393 C386.7012,3.145 387.0972,2.101 387.8882,1.261 C388.6812,0.421 389.7002,1.42108547e-14 390.9492,1.42108547e-14 Z M387.854,55.9446 L387.854,18.0006 L394.19,18.0006 L394.19,55.9446 L387.854,55.9446 Z M427.9354,35.8563 C427.9354,36.9133 427.8874,38.0163 427.7924,39.1683 L407.9204,39.1683 C408.1114,43.7293 408.8674,46.9443 410.1874,48.8163 C411.5074,50.6883 413.3924,51.6243 415.8394,51.6243 C417.4234,51.6243 418.8394,51.3723 420.0874,50.8683 C421.3364,50.3643 422.6304,49.5613 423.9764,48.4563 L426.7834,52.2723 C423.6154,55.2963 419.8954,56.8083 415.6244,56.8083 C411.1114,56.8083 407.6074,55.1403 405.1114,51.8043 C402.6154,48.4683 401.3684,43.6573 401.3684,37.3683 C401.3684,31.0813 402.5564,26.1483 404.9314,22.5723 C407.3084,18.9973 410.6564,17.2083 414.9764,17.2083 C419.1524,17.2083 422.3554,18.7813 424.5874,21.9253 C426.8204,25.0683 427.9354,29.7133 427.9354,35.8563 Z M421.8164,34.4883 L421.8164,33.9843 C421.8164,29.8563 421.2634,26.8563 420.1604,24.9843 C419.0544,23.1123 417.3274,22.1763 414.9764,22.1763 C412.8634,22.1763 411.2074,23.1253 410.0074,25.0203 C408.8074,26.9173 408.1114,30.0723 407.9204,34.4883 L421.8164,34.4883 Z"/>
  </g>
</svg>
