<svg xmlns="http://www.w3.org/2000/svg" width="48" height="48" viewBox="0 0 48 48">
  <path fill-rule="evenodd" d="M33.27075,31.362 L26.29075,38.343 L26.29075,3.642 C26.29075,2.735 25.55475,2 24.64775,2 L23.93275,2 C23.02575,2 22.29075,2.735 22.29075,3.642 L22.29075,38.343 L15.30975,31.362 C14.66775,30.721 13.62775,30.721 12.98675,31.362 L12.48075,31.868 C11.83975,32.509 11.83975,33.549 12.48075,34.191 L23.12875,44.838 C23.77075,45.48 24.81075,45.48 25.45175,44.838 L36.09975,34.191 C36.74075,33.549 36.74075,32.509 36.09975,31.868 L35.59375,31.362 C34.95275,30.721 33.91275,30.721 33.27075,31.362"/>
</svg>
