<svg xmlns="http://www.w3.org/2000/svg" width="48" height="48" viewBox="0 0 48 48">
  <path fill-rule="evenodd" d="M36.012,14.04025 L25.475,3.50325 C24.803,2.83225 23.713,2.83225 23.041,3.50325 L12.504,14.04025 C11.832,14.71225 11.832,15.80225 12.504,16.47425 L12.899,16.86925 C13.571,17.54025 14.661,17.54025 15.333,16.86925 L22.258,9.94325 L22.258,44.56625 C22.258,45.51625 23.029,46.28725 23.979,46.28725 L24.537,46.28725 C25.488,46.28725 26.258,45.51625 26.258,44.56625 L26.258,9.94325 L33.183,16.86925 C33.855,17.54025 34.945,17.54025 35.617,16.86925 L36.012,16.47425 C36.684,15.80225 36.684,14.71225 36.012,14.04025"/>
</svg>
