<svg xmlns="http://www.w3.org/2000/svg" width="48" height="48" viewBox="0 0 48 48">
  <path fill-rule="evenodd" d="M44.56625,22.258 L9.94325,22.258 L16.86925,15.333 C17.54125,14.661 17.54125,13.571 16.86925,12.899 L16.47425,12.504 C15.80225,11.832 14.71225,11.832 14.04125,12.504 L3.50325,23.041 C2.83225,23.713 2.83225,24.803 3.50325,25.475 L14.04125,36.011 C14.71225,36.684 15.80225,36.684 16.47425,36.011 L16.86925,35.617 C17.54125,34.945 17.54125,33.855 16.86925,33.183 L9.94325,26.258 L44.56625,26.258 C45.51625,26.258 46.28725,25.487 46.28725,24.537 L46.28725,23.979 C46.28725,23.029 45.51625,22.258 44.56625,22.258"/>
</svg>
