<svg xmlns="http://www.w3.org/2000/svg" width="48" height="48" viewBox="0 0 48 48">
  <path fill-rule="evenodd" d="M31.812,12.504 L31.417,12.899 C30.745,13.571 30.745,14.661 31.417,15.333 L38.343,22.258 L3.72,22.258 C2.77,22.258 2,23.028 2,23.979 L2,24.537 C2,25.487 2.77,26.258 3.72,26.258 L38.343,26.258 L31.417,33.183 C30.745,33.855 30.745,34.945 31.417,35.617 L31.812,36.011 C32.484,36.684 33.574,36.684 34.246,36.011 L44.783,25.475 C45.455,24.803 45.455,23.713 44.783,23.041 L34.246,12.504 C33.574,11.832 32.484,11.832 31.812,12.504"/>
</svg>
