<svg xmlns="http://www.w3.org/2000/svg" width="48" height="48" viewBox="0 0 48 48">
  <path fill-rule="evenodd" d="M40,18 L8,18 L8,12 L14,12 L14,13 C14,14.104 14.896,15 16,15 C17.104,15 18,14.104 18,13 L18,12 L30,12 L30,13 C30,14.104 30.896,15 32,15 C33.104,15 34,14.104 34,13 L34,12 L40,12 L40,18 Z M8,40 L40,40 L40,22 L8,22 L8,40 Z M34,8 L44,8 L44,44 L6,44 C4.896,44 4,43.104 4,42 L4,10 C4,8.896 4.896,8 6,8 L14,8 L14,6 C14,4.896 14.896,4 16,4 C17.104,4 18,4.896 18,6 L18,8 L30,8 L30,6 C30,4.896 30.896,4 32,4 C33.104,4 34,4.896 34,6 L34,8 Z M24,38 C25.104,38 26,37.104 26,36 L26,26 C26,24.896 25.104,24 24,24 L22,24 C20.896,24 20,24.896 20,26 C20,27.104 20.896,28 22,28 L22,36 C22,37.104 22.896,38 24,38 Z"/>
</svg>
