<svg xmlns="http://www.w3.org/2000/svg" width="48" height="48" viewBox="0 0 48 48">
  <path fill-rule="evenodd" d="M40.012,37.183 L27.087,24.258 L40.012,11.332 C40.684,10.661 40.684,9.571 40.012,8.899 L39.617,8.504 C38.945,7.832 37.855,7.832 37.183,8.504 L24.258,21.429 L11.333,8.504 C10.661,7.832 9.571,7.832 8.899,8.504 L8.504,8.899 C7.832,9.571 7.832,10.661 8.504,11.332 L21.429,24.258 L8.504,37.183 C7.832,37.855 7.832,38.945 8.504,39.617 L8.899,40.012 C9.571,40.683 10.661,40.683 11.333,40.012 L24.258,27.086 L37.183,40.012 C37.855,40.683 38.945,40.683 39.617,40.012 L40.012,39.617 C40.684,38.945 40.684,37.855 40.012,37.183"/>
</svg>
