<svg xmlns="http://www.w3.org/2000/svg" width="48" height="48" viewBox="0 0 48 48">
  <path fill-rule="evenodd" d="M33.899,24 L44,13.899 L44,34.101 L33.899,24 Z M16.928,26.828 L22.586,32.485 C23.366,33.266 24.633,33.266 25.414,32.485 L31.071,26.828 L42.242,38 L5.757,38 L16.928,26.828 Z M14.1,24 L4,34.101 L4,13.899 L14.1,24 Z M24,28.243 L5.757,10 L42.242,10 L24,28.243 Z M0,8 L0,40 C0,41.104 0.895,42 2,42 L46,42 C47.104,42 48,41.104 48,40 L48,8 C48,6.896 47.104,6 46,6 L2,6 C0.895,6 0,6.896 0,8 Z"/>
</svg>
