<svg xmlns="http://www.w3.org/2000/svg" width="48" height="48" viewBox="0 0 48 48">
  <path fill-rule="evenodd" d="M6,11.721 C6,10.771 6.771,10 7.721,10 L40.279,10 C41.229,10 42,10.771 42,11.721 L42,12.28 C42,13.23 41.229,14 40.279,14 L7.721,14 C6.771,14 6,13.23 6,12.28 L6,11.721 Z M7.721,26 C6.771,26 6,25.229 6,24.279 L6,23.721 C6,22.771 6.771,22 7.721,22 L40.28,22 C41.23,22 42,22.771 42,23.721 L42,24.279 C42,25.229 41.23,26 40.28,26 L7.721,26 Z M7.721,38 C6.771,38 6,37.229 6,36.279 L6,35.721 C6,34.771 6.771,34 7.721,34 L40.28,34 C41.23,34 42,34.771 42,35.721 L42,36.279 C42,37.229 41.23,38 40.28,38 L7.721,38 Z"/>
</svg>
