<svg xmlns="http://www.w3.org/2000/svg" width="48" height="48" viewBox="0 0 48 48">
  <path fill-rule="evenodd" d="M8.00021511,20.4996552 C8.00021511,13.5966552 13.5972151,7.99965524 20.5002151,7.99965524 C27.4042151,7.99965524 33.0002151,13.5966552 33.0002151,20.4996552 C33.0002151,27.4026552 27.4042151,32.9996552 20.5002151,32.9996552 C13.5972151,32.9996552 8.00021511,27.4026552 8.00021511,20.4996552 M44.7832151,41.9246552 L33.4982151,30.6396552 C36.0612151,27.3596552 37.4262151,23.0986552 36.8812151,18.5016552 C36.0012151,11.0776552 30.0422151,5.05765524 22.6232151,4.13265524 C11.8462151,2.78865524 2.78621511,11.8486552 4.13321511,22.6266552 C5.06121511,30.0506552 11.0912151,36.0116552 18.5212151,36.8836552 C23.1262151,37.4236552 27.3942151,36.0476552 30.6742151,33.4726552 L41.9552151,44.7526552 C42.6272151,45.4256552 43.7162151,45.4256552 44.3892151,44.7526552 L44.7832151,44.3586552 C45.4552151,43.6866552 45.4552151,42.5966552 44.7832151,41.9246552"/>
</svg>
