<svg height="48" viewBox="0 0 48 48" width="48" xmlns="http://www.w3.org/2000/svg"><path d="m36.6026236 0c-4.9888178 0-9.0673747 4.07854777-9.0673747 9.06737461 0 1.00408109.1787735 1.97905529.4833711 2.88355849l-9.2340543 6.0004685c-1.662374-1.8422591-4.0542776-3.0169022-6.7171911-3.0169022-4.98881776 0-9.0673746 4.0785371-9.0673746 9.0673746 0 4.9888161 4.07855684 9.0673746 9.0673746 9.0673746 2.6757444 0 5.0706636-1.1758566 6.7338591-3.0335702l9.2340543 6.0004685c-.3122095.9145861-.5000391 1.8831193-.5000391 2.9002264 0 4.9888162 4.0785569 9.0673746 9.0673747 9.0673746 4.9888183 0 9.0673746-4.0785584 9.0673746-9.0673746 0-4.9888161-4.0785563-9.0673746-9.0673746-9.0673746-2.8274592 0-5.351332 1.3235284-7.0172146 3.3669296l-9.0840426-5.9171287c.4048119-1.0257382.6333828-2.1514256.6333828-3.3169256 0-1.1785336-.2365993-2.2984296-.6500507-3.3335936l9.0840425-5.9004607c1.6656506 2.0536814 4.1981476 3.3669295 7.0338826 3.3669295 4.9888183 0 9.0673746-4.0785477 9.0673746-9.06737459 0-4.98882684-4.0785563-9.06737461-9.0673746-9.06737461zm0 3.20024986c3.2592784 0 5.8671247 2.60784095 5.8671247 5.86712475 0 3.25928379-2.6078463 5.86712479-5.8671247 5.86712479-3.259278 0-5.8671248-2.607841-5.8671248-5.86712479 0-3.2592838 2.6078468-5.86712475 5.8671248-5.86712475zm-24.535249 14.93449934c3.2592785 0 5.8671248 2.6078196 5.8671248 5.8671248 0 3.2592944-2.6078463 5.8671247-5.8671248 5.8671247-3.25927793 0-5.86712474-2.6078303-5.86712474-5.8671247 0-3.2593052 2.60784681-5.8671248 5.86712474-5.8671248zm24.535249 14.9344994c3.2592784 0 5.8671247 2.6078303 5.8671247 5.8671247 0 3.2592945-2.6078463 5.8671248-5.8671247 5.8671248-3.259278 0-5.8671248-2.6078303-5.8671248-5.8671248 0-3.2592944 2.6078468-5.8671247 5.8671248-5.8671247z"/></svg>