<svg height="85" viewBox="0 0 324 85" width="324" xmlns="http://www.w3.org/2000/svg"><g fill="none" fill-rule="evenodd"><path d="m22.0140148 50.0986795c1.2250025-.6465521 2.4860344-1.5699125 3.7830958-2.7690817l3.5308895 3.8123589c-1.4411794 1.5829035-3.146575 2.8909973-5.1161868 3.9222829-1.9696118 1.0302862-4.1794201 1.5469283-6.629425 1.5469283-5.3323637 0-9.59585265-2.159504-12.79046691-6.4765134-3.19461426-4.31601-4.79192139-10.7195739-4.79192139-19.2096924 0-5.7080457.75661917-10.469747 2.2698575-14.282106 1.51323833-3.8143576 3.57792794-6.64339775 6.19707127-8.49111774 2.61814253-1.84572137 5.58457003-2.77008102 8.89928253-2.77008102 2.3539263 0 4.4196168.39572586 6.1970713 1.18717758 1.7764538.79145172 3.5549091 2.00361199 5.3323637 3.63348288l-3.3867715 3.9572586c-1.3451008-1.19817-2.6421622-2.0735635-3.8911843-2.6261807-1.250023-.5506186-2.6191434-.8274268-4.1073612-.8274268-7.0617789 0-10.59266835 6.7403306-10.59266835 20.2189932 0 13.4306959 3.60294845 20.1460438 10.80884525 20.1460438 1.6323358 0 3.0625061-.324775 4.2875086-.9723264zm34.4072566.5754014c.3843145.6485507 1.0088256 1.1631941 1.8735332 1.5469283l-1.3691204 4.3899589c-1.7774546-.2878007-3.1826044-.8524095-4.2154497-1.691828-1.0328452-.8374199-1.7654447-2.0975469-2.1977985-3.7773832-2.0656904 3.6464739-5.0921671 5.4692112-9.07943 5.4692112-3.1235561 0-5.6095905-1.0432773-7.4581032-3.1298318-1.8495135-2.0875539-2.7742703-4.8566356-2.7742703-8.3102431 0-4.0302081 1.2490221-7.1110738 3.7470664-9.2455951 2.4970434-2.1345213 6.1250123-3.2017819 10.8809042-3.2017819h3.7470663v-3.4546068c0-2.4932728-.4934037-4.3170094-1.4772088-5.4672126-.9848059-1.1522018-2.5110549-1.7278031-4.5757445-1.7278031-2.4500049 0-5.308344.6485508-8.5750172 1.9436536l-1.5852973-4.4609097c3.8911843-1.678837 7.5411712-2.5192548 10.9529631-2.5192548 3.8911843 0 6.7845521 1.0432773 8.6831057 3.1308311 1.8975528 2.0865545 2.8463293 5.0245193 2.8463293 8.8128948v18.7070407c0 1.3440689.1921572 2.3393794.5764717 2.9859315zm-6.845602-4.8556363v-8.8498692h-3.0264766c-3.0264767 0-5.2492957.6475514-6.6654546 1.9426542-1.4171597 1.2951028-2.1257396 3.2857238-2.1257396 5.9708637 0 2.302405.4323538 4.0421997 1.2970615 5.2163863.8647076 1.1761852 2.08971 1.7637781 3.6750073 1.7637781 2.9784374 0 5.2603047-2.0156036 6.845602-6.0438131zm33.5786786-.5758011v-27.4140088h6.3411892v37.9187316h-5.4764816l-.4323538-5.3243115c-1.2019836 2.0625711-2.5580934 3.6094995-4.0713317 4.640785-1.5132384 1.0302863-3.2786831 1.5469284-5.2963342 1.5469284-2.7382408 0-4.9250303-.9363513-6.5573661-2.8070554-1.6333366-1.8707041-2.4500049-4.3160101-2.4500049-7.3379166v-28.6371615h6.3411892v27.9896101c0 3.8853084 1.3691204 5.8279626 4.1073612 5.8279626 1.5852973 0 2.9784373-.5636095 4.1794201-1.6908287 1.199982-1.1262198 2.305887-2.6981308 3.3147126-4.7127352zm41.793401-25.7589554c-1.105905.480667-2.341917.7914517-3.711037.9363514-1.36912.1439003-3.110545.2158504-5.224275.2158504 3.699027 2.0136051 5.54854 5.228378 5.54854 9.6403217 0 3.8863077-1.080884 6.9921561-3.242653 9.3175452-2.161769 2.328387-5.141207 3.4905819-8.935312 3.4905819-1.394141 0-2.666182-.2408332-3.819126-.7195016-.480393.3847335-.853698.8983777-1.116914 1.5469284-.264216.6465521-.396324 1.3310779-.396324 2.0505794 0 1.055269.288236 1.8826958.864708 2.4822804.576471.600584 1.609317.8983777 3.098535.8983777h4.179421c2.353926 0 4.419616.4566836 6.197071 1.3680522 1.776454.9113687 3.134565 2.146513 4.071332 3.7054331.936766 1.5579207 1.405149 3.2737321 1.405149 5.1444362 0 3.4536075-1.286052 6.2226892-3.855154 8.3092437-2.570104 2.0865545-6.28114 3.1298318-11.133111 3.1298318-4.997089 0-8.538988-.9703278-10.6286978-2.9139813-2.0897101-1.9416549-3.1345651-4.7846854-3.1345651-8.5250942h5.6205999c0 2.3493724.576471 4.0162177 1.729415 5.0005358 1.152943.9823195 3.314712 1.4739789 6.485307 1.4739789 3.074516 0 5.284324-.5156428 6.629425-1.545929 1.345101-1.0332842 2.017651-2.5312465 2.017651-4.4968848 0-3.7424074-2.209808-5.6131115-6.629425-5.6131115h-2.666182c-3.45883 0-5.980894-.6345604-7.566191-1.9066791-1.5852977-1.2691209-2.3779464-2.9849322-2.3779464-5.1434369 0-2.302405 1.2490221-4.4609097 3.7470664-6.4765134-3.7000279-2.2534389-5.5485406-5.8019806-5.5485406-10.6476238 0-3.981242 1.1769632-7.1710322 3.5308896-9.5693708 2.352925-2.3983385 5.404422-3.5985071 9.151489-3.5985071 3.361751 0 6.004914-.2618186 7.926486-.7914517 1.920572-.5266352 3.891185-1.3420703 5.908836-2.445306zm-11.16914 17.340987c1.008825-1.3430696 1.513238-3.5735244 1.513238-6.6913646 0-5.7080457-2.042671-8.5630679-6.125012-8.5630679-2.114731 0-3.700028.6965175-4.755892 2.0865546-1.056865 1.3920356-1.585297 3.5745237-1.585297 6.5484635 0 2.5902056.551451 4.6767602 1.657356 6.2596636 1.104904 1.5829034 2.642162 2.3743552 4.611774 2.3743552 2.11373 0 3.675007-.6715348 4.683833-2.0146044zm31.128974-19.7870924c2.73824 0 4.924029.9833188 6.557366 2.9499564 1.633336 1.9676369 2.450005 4.6058093 2.450005 7.9145172v27.8447104h-6.341189v-26.9813086c0-2.4463053-.349286-4.1841014-1.044856-5.215387-.69657-1.0322849-1.741425-1.5469283-3.134565-1.5469283-2.73824 0-5.284324 2.3493724-7.63825 7.050116v26.6935079h-6.341189v-53.09821599l6.341189-.64855071v21.1533459c1.199982-2.0146043 2.510054-3.53655 3.927214-4.5688349 1.416158-1.0302862 3.158584-1.5469283 5.224275-1.5469283zm32.642412 33.0250218 2.450005 3.9582579c-2.161769 1.7258044-4.587754 2.5902056-7.277956 2.5902056-2.83532 0-5.033119-.8404178-6.593395-2.5192548-1.561278-1.6778377-2.341917-3.9312766-2.341917-6.7623154v-24.5350033h-5.116187v-4.9655601h5.116187v-8.56106924l6.341189-.79145172v9.35252096h7.350015l-.648531 4.9655601h-6.701484v24.6069535c0 2.6381724 1.127923 3.9572586 3.386772 3.9572586.767628 0 1.441179-.0959336 2.017651-.2878006.576472-.1918671 1.248021-.5286338 2.017651-1.0083015z" fill="#424242"/><path d="m242.295605 7c4.035322 0 7.530147.63004601 10.484579 1.89015692 2.954432 1.26011088 5.356373 3.68519368 7.205896 7.27532098 1.849522 3.5901273 2.774269 8.642383 2.774269 15.1569187 0 9.2725142-1.825475 15.7275139-5.47648 19.3651926-3.651006 3.6376786-8.286752 5.4564907-13.907379 5.4564907h-10.37649v-49.1440799zm-2.73824 5.2068474v38.8017118h4.251479c2.401977 0 4.479656-.5230571 6.233099-1.5691869 1.753444-1.0461298 3.170589-3.0075938 4.251479-5.8844508 1.08089-2.8768569 1.621326-6.9543245 1.621326-12.2325249 0-5.3733032-.564456-9.4507707-1.693385-12.232525s-2.570094-4.6243416-4.323538-5.5278174c-1.753443-.9034757-3.879161-1.3552068-6.377217-1.3552068zm42.955145 5.5634807c4.515717 0 8.010542 1.6523848 10.484579 4.957204 2.474036 3.3048192 3.711036 8.1668723 3.711036 14.5863053 0 6.0390221-1.261019 10.8297493-3.783095 14.3723252-2.522077 3.542576-6.016901 5.3138374-10.484579 5.3138374-4.467677 0-7.950492-1.7355984-10.448549-5.2068474-2.498056-3.4712489-3.747065-8.2738637-3.747065-14.4079885 0-6.3243303 1.249009-11.1744958 3.747065-14.550642 2.498057-3.3761462 6.004891-5.064194 10.520608-5.064194zm0 5.064194c-2.546096 0-4.443629 1.1293278-5.692657 3.3880171-1.249029 2.2586894-1.873533 5.9795271-1.873533 11.1626249 0 5.1355463.624504 8.8444964 1.873533 11.1269614 1.249028 2.2824651 3.122542 3.4236805 5.620598 3.4236805 2.546096 0 4.44363-1.1412154 5.692658-3.4236805 1.249028-2.282465 1.873533-6.0151904 1.873533-11.1982881 0-5.1355464-.624505-8.8326088-1.873533-11.0912982-1.249028-2.2586893-3.122542-3.3880171-5.620599-3.3880171zm38.48749 31.5977176c-2.16178 1.7118487-4.58774 2.5677603-7.277955 2.5677603-2.834333 0-5.032109-.8321362-6.593394-2.4964337-1.561286-1.6642974-2.341916-3.8991776-2.341916-6.7047075v-24.3223966h-5.116186v-4.9215407h5.116186v-8.4878744l6.341188-.78459346v9.27246786h7.350013l-.64853 4.9215407h-6.701483v24.3937232c0 2.6153246 1.128912 3.9229672 3.386771 3.9229672.768633 0 1.441176-.0951012 2.017651-.2853067.576474-.1902054 1.249018-.5230599 2.01765-.9985734z" fill="#3db049" fill-rule="nonzero"/><path d="m184.072895 55.7483158v-49.7483158h6.556441v49.7483158zm38.401313-35.8856159c1.632106 1.9745693 2.44966 4.6210337 2.44966 7.9424017v27.942813h-6.340295v-27.0763692c0-2.4549242-.349237-4.1988429-1.044708-5.2347647-.696472-1.034919-1.741179-1.5513757-3.134123-1.5513757-2.737855 0-5.28458 2.3576498-7.637174 7.074955v26.7875546h-6.340295v-38.0513242h5.47571l.504341 5.7040884c1.247846-2.1169709 2.617774-3.7295191 4.106782-4.8376446 1.488008-1.1061198 3.289229-1.660684 5.403661-1.660684 2.737855 0 4.923335.9867833 6.556441 2.9603497zm-84.971061 59.8853073h-2.42164l-4.242874-11.7732065c.080054.935978.14343 1.77166.190128 2.5070712.046699.7354113.070048 1.6580043.070048 2.7678067v6.4983286h-1.701153v-13.8189766h2.421641l4.242874 11.793263c-.05337-.2005667-.110074-.7487741-.170115-1.6446387s-.090061-1.7315466-.090061-2.5070712v-7.6415531h1.701152zm9.806644-5.595783c0 .2941645-.013343.6016955-.040028.9226022h-5.523742c.05337 1.2702558.263511 2.166107.630428 2.6875804s.890599.7822062 1.571064.7822062c.4403 0 .833896-.0701973 1.1808-.210594.346903-.1403967.707144-.3643595 1.080732-.6718951l.780529 1.0629982c-.880601.8423802-1.914625 1.2635639-3.102102 1.2635639-1.254189 0-2.228172-.4646392-2.921979-1.3939316-.693807-.9292923-1.040705-2.2697264-1.040705-4.0213422 0-1.7516159.33022-3.1254772.990671-4.1216251.660451-.996148 1.591072-1.4942145 2.791891-1.4942145 1.160792 0 2.051387.4378974 2.67181 1.3137054.620423.8758079.930631 2.1694437.930631 3.8809462zm-1.701153-.5214708c0-1.1499157-.153436-1.9855978-.460312-2.5070712s-.787196-.7822062-1.440976-.7822062c-.587067 0-1.047374.2640755-1.380935.7922345-.333561.5281589-.527024 1.4072965-.580394 2.6374389h3.862617zm5.723878-4.4525585v10.5698123h-1.761193v-10.5698123zm-.900611-5.0141424c.360246 0 .647104.1136527.860583.3409616.213479.227309.320217.5214691.320217.8824891 0 .3342778-.110073.615067-.330223.8423759-.220151.227309-.503673.3409617-.850577.3409617-.346903 0-.630425-.1136527-.850576-.3409617-.22015-.2273089-.330223-.5080981-.330223-.8423759 0-.3476489.110073-.6384663.330223-.8724608.220151-.2339945.503673-.3509899.850576-.3509899zm11.007457 5.4754435c-.306876.1337111-.650439.2206221-1.030698.2607354-.38026.0401134-.863916.0601697-1.450983.0601697 1.027368.5615868 1.541044 1.457438 1.541044 2.6875804 0 1.0830602-.3002 1.9488268-.90061 2.5973258s-1.427629.9727436-2.481681.9727436c-.386931 0-.7405-.0668546-1.060719-.2005657-.133424.1069689-.236827.2507062-.31021.4312163-.073383.18051-.110075.3710455-.110075.5716122 0 .2941645.080054.5248127.240163.6919517.160109.1671389.446968.2507071.860583.2507071h1.160786c.65378 0 1.227496.1270237 1.721166.3810748.493671.2540512.870589.5983522 1.130766 1.0329134.260178.4345611.390265.9125713.390265 1.4340447 0 .9627202-.356905 1.7348904-1.070726 2.3165338-.71382.5816434-1.744508.8724608-3.092094.8724608-1.387614 0-2.371604-.270761-2.952-.8122911s-.87059-1.3337567-.87059-2.3767035h1.561058c0 .6551846.160107 1.1198238.480325 1.3939316.320219.2741078.920619.4111597 1.80122.4111597.853916 0 1.467659-.1437373 1.841248-.4312163.373588-.2874789.560379-.7053199.560379-1.2535356 0-1.0429468-.613743-1.5644124-1.841247-1.5644124h-.740502c-.960655 0-1.661123-.1771646-2.101423-.5314991-.440301-.3543345-.660448-.8323447-.660448-1.4340448 0-.6418134.346899-1.2435045 1.040705-1.8050913-1.027367-.6284423-1.541044-1.6178898-1.541044-2.9683723 0-1.1098024.326885-1.9989681.980665-2.6675238.653779-.6685556 1.501011-1.0028285 2.541722-1.0028285.93397 0 1.667793-.07354 2.201491-.2206222.533697-.1470823 1.080729-.3743878 1.641112-.6819234zm-4.382969.5816405c-.587067 0-1.027361.1938783-1.320895.5816406-.293533.3877623-.440298.9961388-.440298 1.8251478 0 .7220401.153436 1.3036748.460312 1.7449216.306876.4412467.733828.6618668 1.280867.6618668.587068 0 1.020691-.1871928 1.300882-.561584.280191-.3743911.420284-.9961386.420284-1.865261 0-1.5911624-.567045-2.3867318-1.701152-2.3867318zm10.186901-1.2635639c.760519 0 1.367591.2741038 1.821234.8223194.453642.5482157.680461 1.2836159.680461 2.2062227v7.7618925h-1.761194v-7.5212137c0-.6819268-.096731-1.1666224-.290196-1.4541013s-.483659-.4312162-.87059-.4312162c-.760519 0-1.467657.6551747-2.121437 1.9655438v7.4409874h-1.761193v-14.8017485l1.761193-.1805091v5.8966315c.333561-.5615868.697137-.9861133 1.090739-1.2735922s.877258-.4312163 1.450983-.4312163zm9.526453 0c1.014026 0 1.804553.4612965 2.371607 1.3839034.567053.9226068.850576 2.2931253.850576 4.1115968 0 1.1499157-.140093 2.1393633-.420285 2.9683723-.280191.829009-.677122 1.4641274-1.190806 1.9053741-.513684.4412468-1.110749.6618668-1.791214.6618668-.453643 0-.880594-.1169954-1.280867-.3509899-.400274-.2339945-.747172-.5649246-1.040705-.9928002l-.120082 1.1031113h-1.561057v-14.8017485l1.761193-.1805091v5.6960658c.627094-1.0028335 1.4343-1.5042428 2.42164-1.5042428zm-.560379 9.6271536c1.280874 0 1.921301-1.3772041 1.921301-4.1316534 0-1.5109358-.153436-2.5705807-.460312-3.1789663-.306876-.6083857-.74717-.912574-1.320894-.912574-.747177 0-1.414289.541522-2.001356 1.6245822v5.2347647c.240164.4145045.517015.7454346.830562.9928002.313548.2473656.65711.3710466 1.030699.3710466zm9.546467-9.6271536c1.254189 0 2.224837.4646393 2.911972 1.3939316.687136.9292924 1.030698 2.2964683 1.030698 4.1015686 0 1.6981314-.350233 3.0452508-1.050711 4.0413988-.700478.9961479-1.671126 1.4942144-2.911973 1.4942144s-2.208159-.4880383-2.901966-1.4641296c-.693807-.9760912-1.040705-2.3265534-1.040705-4.0514271 0-1.778358.346898-3.1421912 1.040705-4.0915402.693807-.9493491 1.66779-1.4240165 2.92198-1.4240165zm0 1.4240165c-.70715 0-1.234168.3175592-1.581071.9526871-.346904.6351278-.520353 1.6814018-.520353 3.1388531 0 1.4440803.173449 2.4870115.520353 3.1288249.346903.6418135.86725.9627154 1.561057.9627154.707149 0 1.234168-.3209019 1.581071-.9627154.346903-.6418134.520353-1.6914301.520353-3.1488814 0-1.4440803-.17345-2.4836688-.520353-3.1187966-.346903-.6351279-.867251-.9526871-1.561057-.9526871zm10.347009-1.4240165c.293534 0 .560378.0401128.800542.1203395l-.300203 1.7048084c-.266849-.0668556-.507009-.1002829-.720488-.1002829-.520355 0-.947307.233991-1.280868.70198s-.593735 1.1833328-.780529 2.146053v6.2175366h-1.761193v-10.5698123h1.521031l.140095 1.9655439c.49367-1.4574514 1.287533-2.1861662 2.381613-2.1861662zm6.724555 0c.760519 0 1.367591.2741038 1.821234.8223194.453643.5482157.680461 1.2836159.680461 2.2062227v7.7618925h-1.761193v-7.5212137c0-.6819268-.096731-1.1666224-.290197-1.4541013-.193465-.2874789-.483659-.4312162-.87059-.4312162-.760518 0-1.467657.6551747-2.121437 1.9655438v7.4409874h-1.761193v-14.8017485l1.761193-.1805091v5.8966315c.333561-.5615868.697137-.9861133 1.090739-1.2735922s.877258-.4312163 1.450983-.4312163zm8.745925 0c1.254189 0 2.224837.4646393 2.911972 1.3939316.687136.9292924 1.030699 2.2964683 1.030699 4.1015686 0 1.6981314-.350234 3.0452508-1.050712 4.0413988-.700478.9961479-1.671126 1.4942144-2.911973 1.4942144-1.240846 0-2.208159-.4880383-2.901966-1.4641296-.693806-.9760912-1.040705-2.3265534-1.040705-4.0514271 0-1.778358.346899-3.1421912 1.040705-4.0915402.693807-.9493491 1.667791-1.4240165 2.92198-1.4240165zm0 1.4240165c-.707149 0-1.234168.3175592-1.581071.9526871-.346904.6351278-.520353 1.6814018-.520353 3.1388531 0 1.4440803.173449 2.4870115.520353 3.1288249.346903.6418135.867251.9627154 1.561057.9627154.70715 0 1.234168-.3209019 1.581071-.9627154.346904-.6418134.520353-1.6914301.520353-3.1488814 0-1.4440803-.173449-2.4836688-.520353-3.1187966-.346903-.6351279-.86725-.9526871-1.561057-.9526871zm9.706575-1.4240165c1.254189 0 2.224837.4646393 2.911973 1.3939316.687135.9292924 1.030698 2.2964683 1.030698 4.1015686 0 1.6981314-.350234 3.0452508-1.050712 4.0413988-.700478.9961479-1.671125 1.4942144-2.911972 1.4942144s-2.208159-.4880383-2.901966-1.4641296c-.693807-.9760912-1.040705-2.3265534-1.040705-4.0514271 0-1.778358.346898-3.1421912 1.040705-4.0915402.693807-.9493491 1.66779-1.4240165 2.921979-1.4240165zm0 1.4240165c-.707149 0-1.234167.3175592-1.581071.9526871-.346903.6351278-.520352 1.6814018-.520352 3.1388531 0 1.4440803.173449 2.4870115.520352 3.1288249.346904.6418135.867251.9627154 1.561058.9627154.707149 0 1.234167-.3209019 1.581071-.9627154.346903-.6418134.520352-1.6914301.520352-3.1488814 0-1.4440803-.173449-2.4836688-.520352-3.1187966-.346904-.6351279-.867251-.9526871-1.561058-.9526871zm13.208948-5.455387v14.8218051h-1.561057l-.120082-1.3437902c-.627094 1.056318-1.427628 1.584469-2.401626 1.584469-1.09408 0-1.931306-.4846956-2.511702-1.4541013s-.87059-2.3098397-.87059-4.0213422c0-1.1098024.146765-2.0858791.440299-2.9282592.293533-.8423802.700471-1.4908694 1.220827-1.9454873.520355-.4546178 1.114084-.6819234 1.781206-.6819234.920628 0 1.674465.4078129 2.261532 1.2234508v-5.455387zm-3.742535 13.6585241c.760519 0 1.42096-.5014093 1.981342-1.5042428v-5.3551041c-.54704-.9092357-1.180796-1.3638468-1.901288-1.3638468-.613752 0-1.090737.3342728-1.430969 1.0028285s-.510346 1.7048014-.510346 3.1087683c0 2.7410783.620414 4.1115969 1.861261 4.1115969zm21.554602 1.163281h-1.721166l-.360244-6.2777064c-.173452-2.593996-.246834-4.4859801-.22015-5.6760092l-2.341586 10.3893032h-1.701152l-2.461668-10.4093598.020014.9226022c0 1.0429469-.053369 2.6741982-.160109 4.8938031l-.34023 6.1573669h-1.721166l.940637-13.8189766h2.3616l2.241518 10.1285678 2.121437-10.1285678h2.421641zm8.645856-2.2463358c0 .3743912.053369.6518376.160109.8323476.106739.1805101.280188.3242474.520352.4312163l-.380257 1.2234507c-.49367-.0802266-.883931-.2373349-1.170793-.4713294-.286863-.2339944-.490332-.5849809-.610414-1.0529699-.573725 1.0162046-1.414286 1.5242993-2.521708 1.5242993-.867259 0-1.557719-.2908173-2.071403-.8724607-.513684-.5816435-.770522-1.3538137-.770522-2.3165339 0-1.1231735.346898-1.9822546 1.040705-2.5772692.693806-.5950145 1.701145-.8925173 3.022047-.8925173h1.040705v-.9627154c0-.6952979-.136758-1.2033926-.410278-1.5242993s-.697136-.4813577-1.270861-.4813577c-.680464 0-1.474327.1805074-2.381613.5415274l-.440299-1.2435073c1.080738-.467989 2.094748-.70198 3.042061-.70198 1.080738 0 1.884608.2908174 2.411634.8724608.527026.5816435.790535 1.4006119.790535 2.4569298zm-3.642467 1.163281c.827231 0 1.460987-.5615783 1.901288-1.6847518v-2.4669581h-.84057c-.840573 0-1.457652.1805073-1.851254.5415274-.393602.36102-.5904.9159129-.5904 1.6646953 0 .6418134.120081 1.126509.360244 1.4541013.240164.3275922.580391.4913859 1.020692.4913859zm13.769328-9.0254564c-.306877.1337111-.650439.2206221-1.030699.2607354-.380259.0401134-.863915.0601697-1.450983.0601697 1.027368.5615868 1.541044 1.457438 1.541044 2.6875804 0 1.0830602-.3002 1.9488268-.90061 2.5973258s-1.427628.9727436-2.481681.9727436c-.386931 0-.7405-.0668546-1.060718-.2005657-.133425.1069689-.236827.2507062-.310211.4312163-.073383.18051-.110074.3710455-.110074.5716122 0 .2941645.080053.5248127.240163.6919517.160109.1671389.446967.2507071.860582.2507071h1.160787c.653779 0 1.227496.1270237 1.721166.3810748.49367.2540512.870588.5983522 1.130766 1.0329134.260177.4345611.390264.9125713.390264 1.4340447 0 .9627202-.356905 1.7348904-1.070725 2.3165338-.713821.5816434-1.744509.8724608-3.092095.8724608-1.387613 0-2.371603-.270761-2.952-.8122911-.580396-.5415301-.870589-1.3337567-.870589-2.3767035h1.561057c0 .6551846.160107 1.1198238.480326 1.3939316.320218.2741078.920619.4111597 1.80122.4111597.853916 0 1.467659-.1437373 1.841247-.4312163.373588-.2874789.56038-.7053199.56038-1.2535356 0-1.0429468-.613743-1.5644124-1.841248-1.5644124h-.740501c-.960656 0-1.661123-.1771646-2.101424-.5314991-.4403-.3543345-.660447-.8323447-.660447-1.4340448 0-.6418134.346898-1.2435045 1.040705-1.8050913-1.027368-.6284423-1.541044-1.6178898-1.541044-2.9683723 0-1.1098024.326885-1.9989681.980664-2.6675238.65378-.6685556 1.501012-1.0028285 2.541722-1.0028285.933971 0 1.667794-.07354 2.201491-.2206222.533698-.1470823 1.08073-.3743878 1.641112-.6819234zm-4.38297.5816405c-.587067 0-1.027361.1938783-1.320894.5816406-.293534.3877623-.440299.9961388-.440299 1.8251478 0 .7220401.153436 1.3036748.460312 1.7449216.306876.4412467.733828.6618668 1.280868.6618668.587067 0 1.02069-.1871928 1.300881-.561584.280191-.3743911.420285-.9961386.420285-1.865261 0-1.5911624-.567045-2.3867318-1.701153-2.3867318zm11.968108 7.2805349c0 .3743912.053369.6518376.160108.8323476.10674.1805101.280189.3242474.520353.4312163l-.380258 1.2234507c-.49367-.0802266-.88393-.2373349-1.170793-.4713294-.286862-.2339944-.490331-.5849809-.610413-1.0529699-.573725 1.0162046-1.414286 1.5242993-2.521709 1.5242993-.867258 0-1.557719-.2908173-2.071403-.8724607-.513684-.5816435-.770522-1.3538137-.770522-2.3165339 0-1.1231735.346898-1.9822546 1.040705-2.5772692.693807-.5950145 1.701146-.8925173 3.022047-.8925173h1.040705v-.9627154c0-.6952979-.136758-1.2033926-.410278-1.5242993s-.697136-.4813577-1.270861-.4813577c-.680464 0-1.474327.1805074-2.381613.5415274l-.440298-1.2435073c1.080737-.467989 2.094748-.70198 3.042061-.70198 1.080737 0 1.884607.2908174 2.411633.8724608.527027.5816435.790536 1.4006119.790536 2.4569298zm-3.642468 1.163281c.827232 0 1.460988-.5615783 1.901288-1.6847518v-2.4669581h-.840569c-.840574 0-1.457652.1805073-1.851254.5415274-.393602.36102-.5904.9159129-.5904 1.6646953 0 .6418134.12008 1.126509.360244 1.4541013.240164.3275922.580391.4913859 1.020691.4913859zm11.888054-9.4867575v1.3638468l-4.543078 7.7217793h4.583105l-.180122 1.4841862h-6.264244v-1.3237336l4.543078-7.741836h-4.16282v-1.5042427zm3.702508 0v10.5698123h-1.761193v-10.5698123zm-.90061-5.0141424c.360245 0 .647104.1136527.860583.3409616.213479.227309.320217.5214691.320217.8824891 0 .3342778-.110074.615067-.330224.8423759-.22015.227309-.503673.3409617-.850576.3409617-.346904 0-.630426-.1136527-.850577-.3409617-.22015-.2273089-.330223-.5080981-.330223-.8423759 0-.3476489.110073-.6384663.330223-.8724608.220151-.2339945.503673-.3509899.850577-.3509899zm8.125504 4.7935201c.760519 0 1.367591.2741038 1.821234.8223194.453643.5482157.680461 1.2836159.680461 2.2062227v7.7618925h-1.761193v-7.5212137c0-.6819268-.096732-1.1666224-.290197-1.4541013s-.483659-.4312162-.87059-.4312162c-.760519 0-1.467657.6551747-2.121437 1.9655438v7.4409874h-1.761193v-10.5698123h1.52103l.140095 1.584469c.346904-.588329.727158-1.0362545 1.140773-1.3437902.413616-.3075356.91395-.4613011 1.501017-.4613011zm12.168243 5.1946516c0 .2941645-.013342.6016955-.040027.9226022h-5.523742c.05337 1.2702558.26351 2.166107.630427 2.6875804s.8906.7822062 1.571064.7822062c.440301 0 .833897-.0701973 1.1808-.210594.346904-.1403967.707144-.3643595 1.080732-.6718951l.780529 1.0629982c-.880601.8423802-1.914624 1.2635639-3.102101 1.2635639-1.25419 0-2.228173-.4646392-2.92198-1.3939316-.693807-.9292923-1.040705-2.2697264-1.040705-4.0213422 0-1.7516159.330221-3.1254772.990671-4.1216251.660451-.996148 1.591072-1.4942145 2.791892-1.4942145 1.160792 0 2.051386.4378974 2.67181 1.3137054.620423.8758079.93063 2.1694437.93063 3.8809462zm-1.701152-.5214708c0-1.1499157-.153436-1.9855978-.460312-2.5070712s-.787197-.7822062-1.440976-.7822062c-.587068 0-1.047375.2640755-1.380936.7922345-.333561.5281589-.527023 1.4072965-.580393 2.6374389h3.862617zm-305.71709907-7.7017228c1.12076482 0 2.09141266.1771646 2.91197262.5314991.82055997.3543345 1.48767188 1.0362511 2.00135576 2.0457701.51368388 1.0095191.77052197 2.4301786.77052197 4.2620211 0 2.6073671-.50700506 4.4224685-1.52103038 5.4453587s-2.30155131 1.5343276-3.86261661 1.5343276h-2.88195229v-13.8189766zm-.76051519 1.4641296v10.910774h1.1807999c.66712192 0 1.24417372-.1470801 1.73117273-.4412446.486999-.2941645.88059503-.8457146 1.18079989-1.654667.30020487-.8089523.45030505-1.9555081.45030505-3.4397017 0-1.5109358-.1567713-2.6574916-.47031861-3.4397017-.3135473-.7822102-.71381445-1.300333-1.20081345-1.5543842-.486999-.2540511-1.07739305-.3810748-1.77119984-.3810748zm12.00813456 1.5644124c1.2541892 0 2.224837.4646393 2.9119726 1.3939316.6871356.9292924 1.0306982 2.2964683 1.0306982 4.1015686 0 1.6981314-.3502337 3.0452508-1.0507118 4.0413988-.700478.9961479-1.6711258 1.4942144-2.9119726 1.4942144s-2.208159-.4880383-2.9019658-1.4641296c-.6938068-.9760912-1.04070502-2.3265534-1.04070502-4.0514271 0-1.778358.34689822-3.1421912 1.04070502-4.0915402.6938068-.9493491 1.6677902-1.4240165 2.9219794-1.4240165zm0 1.4240165c-.7071493 0-1.2341677.3175592-1.5810711.9526871-.3469034.6351278-.5203525 1.6814018-.5203525 3.1388531 0 1.4440803.1734491 2.4870115.5203525 3.1288249.3469034.6418135.8672507.9627154 1.5610575.9627154.7071493 0 1.2341677-.3209019 1.5810711-.9627154.3469034-.6418134.5203525-1.6914301.5203525-3.1488814 0-1.4440803-.1734491-2.4836688-.5203525-3.1187966-.3469034-.6351279-.8672507-.9526871-1.5610575-.9526871zm10.1468737-1.4240165c.2935336 0 .5603784.0401128.8005423.1203395l-.3002034 1.7048084c-.2668488-.0668556-.5070091-.1002829-.7204881-.1002829-.5203551 0-.9473067.233991-1.2808677.70198-.3335609.467989-.5937346 1.1833328-.7805287 2.146053v6.2175366h-1.7611931v-10.5698123h1.5210304l.1400949 1.9655439c.4936702-1.4574514 1.2875334-2.1861662 2.3816134-2.1861662zm5.06343 0c.5336976 0 1.0140181.086911 1.4409762.2607354.426958.1738245.8405674.4612991 1.2408405.8624326l-.8005423 1.0429416c-.306876-.2540512-.6037408-.441244-.8906033-.561584-.2868624-.12034-.5970694-.1805091-.9306304-.1805091-1.4142985 0-2.1214371 1.377204-2.1214371 4.1316534 0 1.4307091.1801202 2.4535839.5403661 3.0686552.3602458.6150712.8805931.9226022 1.5610574.9226022.333561 0 .6370969-.0601691.9106169-.1805092.27352-.12034.5770559-.3075328.9106169-.5615839l.8205558 1.0629982c-.8005463.7755246-1.6878051 1.163281-2.6618031 1.163281-1.2541892 0-2.2281726-.454611-2.9219794-1.3638467s-1.040705-2.2663834-1.040705-4.0714837c0-1.7649869.3535693-3.1388482 1.0607185-4.1216251.7071493-.9827768 1.6677904-1.4741579 2.8819523-1.4741579zm8.5457891 0c.760519 0 1.3675908.2741038 1.8212337.8223194.453643.5482157.680461 1.2836159.680461 2.2062227v7.7618925h-1.7611931v-7.5212137c0-.6819268-.0967312-1.1666224-.2901965-1.4541013-.1934654-.2874789-.4836591-.4312162-.8705898-.4312162-.760519 0-1.4676576.6551747-2.1214371 1.9655438v7.4409874h-1.7611931v-14.8017485l1.7611931-.1805091v5.8966315c.333561-.5615868.6971369-.9861133 1.0907389-1.2735922.3936019-.2874789.8772581-.4312163 1.4509829-.4312163zm11.9681074 5.1946516c0 .2941645-.0133422.6016955-.0400271.9226022h-5.5237419c.0533698 1.2702558.26351 2.166107.6304271 2.6875804.366917.5214734.8905999.7822062 1.5710643.7822062.4403004 0 .8338965-.0701973 1.1807999-.210594s.7071438-.3643595 1.0807321-.6718951l.7805287 1.0629982c-.8806009.8423802-1.9146244 1.2635639-3.1021014 1.2635639-1.2541892 0-2.2281726-.4646392-2.9219794-1.3939316-.6938068-.9292923-1.040705-2.2697264-1.040705-4.0213422 0-1.7516159.3302204-3.1254772.9906711-4.1216251.6604507-.996148 1.5910718-1.4942145 2.7918913-1.4942145 1.1607921 0 2.0513865.4378974 2.6718099 1.3137054.6204234.8758079.9306304 2.1694437.9306304 3.8809462zm-1.7011524-.5214708c0-1.1499157-.1534357-1.9855978-.4603118-2.5070712s-.7871966-.7822062-1.4409761-.7822062c-.5870673 0-1.0473745.2640755-1.3809355.7922345-.333561.5281589-.5270234 1.4072965-.5803932 2.6374389h3.8626166zm6.3242842-4.6731808c1.1607922 0 2.1547889.394442 2.9820201 1.1833377l-.7605152 1.022885c-.3735883-.2807934-.7338287-.4913852-1.0807321-.6317819s-.7138149-.210594-1.1007457-.210594c-.4669853 0-.8372324.1303664-1.1107524.3911031s-.4102779.6184086-.4102779 1.0730265c0 .4412467.1334224.7888905.4002711 1.0429416.2668488.2540512.7738538.514784 1.5210304.7822062.9606556.347649 1.6677942.7621473 2.1214371 1.2435074.4536429.48136.680461 1.1365348.680461 1.9655438 0 1.0028335-.3368916 1.7816892-1.0106847 2.3365904s-1.5110186.8323476-2.5117015.8323476c-1.3342438 0-2.4483207-.4612965-3.3422641-1.3839033l.9206237-.9827719c.7471765.6551846 1.5410397.9827719 2.3816133.9827719.5336975 0 .9606492-.14708 1.2808677-.4412445s.4803254-.7086628.4803254-1.2435073c0-.3610201-.0600401-.6551802-.180122-.8824891-.120082-.2273089-.3268867-.4345581-.6204203-.6217537-.2935337-.1871956-.7204853-.3810738-1.2808677-.5816405-.9339707-.347649-1.6010826-.7588045-2.0013558-1.233479-.4002731-.4746746-.6004067-1.059652-.6004067-1.7549499 0-.5348445.1367579-1.0228829.4102779-1.4641296s.6571094-.7888905 1.1507796-1.0429416c.4936702-.2540512 1.0540442-.3810749 1.6811388-.3810749zm9.7666161 10.3090769c-.6004097.4813601-1.2741927.7220365-2.0213693.7220365-.7872039 0-1.3976113-.2339909-1.8312405-.7019799-.4336293-.467989-.6504406-1.0964219-.6504406-1.8853176v-6.8392903h-1.4209626v-1.3839033h1.4209626v-2.3867318l1.761193-.2206223v2.6073541h2.0413829l-.180122 1.3839033h-1.8612609v6.8593469c0 .7354112.3135426 1.1031113.9406372 1.1031113.2134791 0 .4002704-.0267418.5603796-.0802262.1601093-.0534845.3469006-.1470809.5603797-.280792zm7.7852739-5.1144253c0 .2941645-.0133422.6016955-.0400271.9226022h-5.5237419c.0533698 1.2702558.26351 2.166107.6304271 2.6875804.366917.5214734.8905999.7822062 1.5710642.7822062.4403005 0 .8338965-.0701973 1.1807999-.210594s.7071439-.3643595 1.0807321-.6718951l.7805288 1.0629982c-.8806009.8423802-1.9146244 1.2635639-3.1021014 1.2635639-1.2541892 0-2.2281726-.4646392-2.9219794-1.3939316-.6938068-.9292923-1.040705-2.2697264-1.040705-4.0213422 0-1.7516159.3302204-3.1254772.9906711-4.1216251.6604507-.996148 1.5910718-1.4942145 2.7918912-1.4942145 1.1607922 0 2.0513866.4378974 2.67181 1.3137054.6204234.8758079.9306304 2.1694437.9306304 3.8809462zm-1.7011524-.5214708c0-1.1499157-.1534357-1.9855978-.4603118-2.5070712s-.7871967-.7822062-1.4409762-.7822062c-.5870672 0-1.0473745.2640755-1.3809354.7922345-.333561.5281589-.5270234 1.4072965-.5803932 2.6374389h3.8626166zm7.8052875-4.6731808c.2935336 0 .5603784.0401128.8005423.1203395l-.3002034 1.7048084c-.2668488-.0668556-.5070091-.1002829-.7204881-.1002829-.5203551 0-.9473067.233991-1.2808677.70198-.3335609.467989-.5937346 1.1833328-.7805287 2.146053v6.2175366h-1.7611931v-10.5698123h1.5210304l.1400949 1.9655439c.4936702-1.4574514 1.2875334-2.1861662 2.3816134-2.1861662zm2.9019658-4.2720493c.333561 0 .6004057.1136527.8005423.3409617.2001366.2273089.3002034.5014126.3002034.8223193 0 .1738245-.0233489.3443036-.0700475.5114426-.0466985.1671389-.1300875.4044726-.2501694.7120082l-1.0807322 2.7678066h-1.0206914l.680461-2.9683723c-.333561-.2540512-.500339-.5749531-.500339-.9627154 0-.3476489.1034024-.6384663.3102102-.8724608.2068078-.2339944.4836592-.3509899.8305626-.3509899zm5.7639046 4.2720493c1.1607921 0 2.1547889.394442 2.9820201 1.1833377l-.7605152 1.022885c-.3735883-.2807934-.7338287-.4913852-1.0807321-.6317819s-.713815-.210594-1.1007457-.210594c-.4669853 0-.8372325.1303664-1.1107524.3911031-.27352.2607367-.410278.6184086-.410278 1.0730265 0 .4412467.1334224.7888905.4002712 1.0429416.2668487.2540512.7738538.514784 1.5210304.7822062.9606555.347649 1.6677942.7621473 2.1214371 1.2435074.4536429.48136.6804609 1.1365348.6804609 1.9655438 0 1.0028335-.3368915 1.7816892-1.0106846 2.3365904-.6737932.5549012-1.5110186.8323476-2.5117015.8323476-1.3342439 0-2.4483208-.4612965-3.3422641-1.3839033l.9206236-.9827719c.7471766.6551846 1.5410397.9827719 2.3816134.9827719.5336975 0 .9606491-.14708 1.2808677-.4412445.3202185-.2941645.4803253-.7086628.4803253-1.2435073 0-.3610201-.06004-.6551802-.180122-.8824891-.1200819-.2273089-.3268866-.4345581-.6204203-.6217537-.2935336-.1871956-.7204852-.3810738-1.2808677-.5816405-.9339706-.347649-1.6010826-.7588045-2.0013557-1.233479-.4002732-.4746746-.6004067-1.059652-.6004067-1.7549499 0-.5348445.1367579-1.0228829.4102779-1.4641296s.6571093-.7888905 1.1507796-1.0429416c.4936702-.2540512 1.0540442-.3810749 1.6811388-.3810749z" fill="#9e9e9e"/></g></svg>