<svg height="72" viewBox="0 0 324 72" width="324" xmlns="http://www.w3.org/2000/svg"><g fill="none" fill-rule="evenodd"><path d="m22.0140148 50.0986795c1.2250025-.6465521 2.4860344-1.5699125 3.7830958-2.7690817l3.5308895 3.8123589c-1.4411794 1.5829035-3.146575 2.8909973-5.1161868 3.9222829-1.9696118 1.0302862-4.1794201 1.5469283-6.629425 1.5469283-5.3323637 0-9.59585265-2.159504-12.79046691-6.4765134-3.19461426-4.31601-4.79192139-10.7195739-4.79192139-19.2096924 0-5.7080457.75661917-10.469747 2.2698575-14.282106 1.51323833-3.8143576 3.57792794-6.64339775 6.19707127-8.49111774 2.61814253-1.84572137 5.58457003-2.77008102 8.89928253-2.77008102 2.3539263 0 4.4196168.39572586 6.1970713 1.18717758 1.7764538.79145172 3.5549091 2.00361199 5.3323637 3.63348288l-3.3867715 3.9572586c-1.3451008-1.19817-2.6421622-2.0735635-3.8911843-2.6261807-1.250023-.5506186-2.6191434-.8274268-4.1073612-.8274268-7.0617789 0-10.59266835 6.7403306-10.59266835 20.2189932 0 13.4306959 3.60294845 20.1460438 10.80884525 20.1460438 1.6323358 0 3.0625061-.324775 4.2875086-.9723264zm34.4072566.5754014c.3843145.6485507 1.0088256 1.1631941 1.8735332 1.5469283l-1.3691204 4.3899589c-1.7774546-.2878007-3.1826044-.8524095-4.2154497-1.691828-1.0328452-.8374199-1.7654447-2.0975469-2.1977985-3.7773832-2.0656904 3.6464739-5.0921671 5.4692112-9.07943 5.4692112-3.1235561 0-5.6095905-1.0432773-7.4581032-3.1298318-1.8495135-2.0875539-2.7742703-4.8566356-2.7742703-8.3102431 0-4.0302081 1.2490221-7.1110738 3.7470664-9.2455951 2.4970434-2.1345213 6.1250123-3.2017819 10.8809042-3.2017819h3.7470663v-3.4546068c0-2.4932728-.4934037-4.3170094-1.4772088-5.4672126-.9848059-1.1522018-2.5110549-1.7278031-4.5757445-1.7278031-2.4500049 0-5.308344.6485508-8.5750172 1.9436536l-1.5852973-4.4609097c3.8911843-1.678837 7.5411712-2.5192548 10.9529631-2.5192548 3.8911843 0 6.7845521 1.0432773 8.6831057 3.1308311 1.8975528 2.0865545 2.8463293 5.0245193 2.8463293 8.8128948v18.7070407c0 1.3440689.1921572 2.3393794.5764717 2.9859315zm-6.845602-4.8556363v-8.8498692h-3.0264766c-3.0264767 0-5.2492957.6475514-6.6654546 1.9426542-1.4171597 1.2951028-2.1257396 3.2857238-2.1257396 5.9708637 0 2.302405.4323538 4.0421997 1.2970615 5.2163863.8647076 1.1761852 2.08971 1.7637781 3.6750073 1.7637781 2.9784374 0 5.2603047-2.0156036 6.845602-6.0438131zm33.5786786-.5758011v-27.4140088h6.3411892v37.9187316h-5.4764816l-.4323538-5.3243115c-1.2019836 2.0625711-2.5580934 3.6094995-4.0713317 4.640785-1.5132384 1.0302863-3.2786831 1.5469284-5.2963342 1.5469284-2.7382408 0-4.9250303-.9363513-6.5573661-2.8070554-1.6333366-1.8707041-2.4500049-4.3160101-2.4500049-7.3379166v-28.6371615h6.3411892v27.9896101c0 3.8853084 1.3691204 5.8279626 4.1073612 5.8279626 1.5852973 0 2.9784373-.5636095 4.1794201-1.6908287 1.199982-1.1262198 2.305887-2.6981308 3.3147126-4.7127352zm41.793401-25.7589554c-1.105905.480667-2.341917.7914517-3.711037.9363514-1.36912.1439003-3.110545.2158504-5.224275.2158504 3.699027 2.0136051 5.54854 5.228378 5.54854 9.6403217 0 3.8863077-1.080884 6.9921561-3.242653 9.3175452-2.161769 2.328387-5.141207 3.4905819-8.935312 3.4905819-1.394141 0-2.666182-.2408332-3.819126-.7195016-.480393.3847335-.853698.8983777-1.116914 1.5469284-.264216.6465521-.396324 1.3310779-.396324 2.0505794 0 1.055269.288236 1.8826958.864708 2.4822804.576471.600584 1.609317.8983777 3.098535.8983777h4.179421c2.353926 0 4.419616.4566836 6.197071 1.3680522 1.776454.9113687 3.134565 2.146513 4.071332 3.7054331.936766 1.5579207 1.405149 3.2737321 1.405149 5.1444362 0 3.4536075-1.286052 6.2226892-3.855154 8.3092437-2.570104 2.0865545-6.28114 3.1298318-11.133111 3.1298318-4.997089 0-8.538988-.9703278-10.6286978-2.9139813-2.0897101-1.9416549-3.1345651-4.7846854-3.1345651-8.5250942h5.6205999c0 2.3493724.576471 4.0162177 1.729415 5.0005358 1.152943.9823195 3.314712 1.4739789 6.485307 1.4739789 3.074516 0 5.284324-.5156428 6.629425-1.545929 1.345101-1.0332842 2.017651-2.5312465 2.017651-4.4968848 0-3.7424074-2.209808-5.6131115-6.629425-5.6131115h-2.666182c-3.45883 0-5.980894-.6345604-7.566191-1.9066791-1.5852977-1.2691209-2.3779464-2.9849322-2.3779464-5.1434369 0-2.302405 1.2490221-4.4609097 3.7470664-6.4765134-3.7000279-2.2534389-5.5485406-5.8019806-5.5485406-10.6476238 0-3.981242 1.1769632-7.1710322 3.5308896-9.5693708 2.352925-2.3983385 5.404422-3.5985071 9.151489-3.5985071 3.361751 0 6.004914-.2618186 7.926486-.7914517 1.920572-.5266352 3.891185-1.3420703 5.908836-2.445306zm-11.16914 17.340987c1.008825-1.3430696 1.513238-3.5735244 1.513238-6.6913646 0-5.7080457-2.042671-8.5630679-6.125012-8.5630679-2.114731 0-3.700028.6965175-4.755892 2.0865546-1.056865 1.3920356-1.585297 3.5745237-1.585297 6.5484635 0 2.5902056.551451 4.6767602 1.657356 6.2596636 1.104904 1.5829034 2.642162 2.3743552 4.611774 2.3743552 2.11373 0 3.675007-.6715348 4.683833-2.0146044zm31.128974-19.7870924c2.73824 0 4.924029.9833188 6.557366 2.9499564 1.633336 1.9676369 2.450005 4.6058093 2.450005 7.9145172v27.8447104h-6.341189v-26.9813086c0-2.4463053-.349286-4.1841014-1.044856-5.215387-.69657-1.0322849-1.741425-1.5469283-3.134565-1.5469283-2.73824 0-5.284324 2.3493724-7.63825 7.050116v26.6935079h-6.341189v-53.09821599l6.341189-.64855071v21.1533459c1.199982-2.0146043 2.510054-3.53655 3.927214-4.5688349 1.416158-1.0302862 3.158584-1.5469283 5.224275-1.5469283zm32.642412 33.0250218 2.450005 3.9582579c-2.161769 1.7258044-4.587754 2.5902056-7.277956 2.5902056-2.83532 0-5.033119-.8404178-6.593395-2.5192548-1.561278-1.6778377-2.341917-3.9312766-2.341917-6.7623154v-24.5350033h-5.116187v-4.9655601h5.116187v-8.56106924l6.341189-.79145172v9.35252096h7.350015l-.648531 4.9655601h-6.701484v24.6069535c0 2.6381724 1.127923 3.9572586 3.386772 3.9572586.767628 0 1.441179-.0959336 2.017651-.2878006.576472-.1918671 1.248021-.5286338 2.017651-1.0083015z" fill="#424242"/><path d="m184 56v-50h6.58036v50zm38.541404-36.0671666c1.63806 1.984559 2.458596 4.6444122 2.458596 7.9825835v28.0841799h-6.363425v-27.2133526c0-2.467344-.35051-4.2200855-1.048519-5.2612482-.699012-1.0401548-1.747531-1.5592244-3.145556-1.5592244-2.747843 0-5.303859 2.3695775-7.665035 7.1107483v26.9230769h-6.363424v-38.2438316h5.495685l.506181 5.7329463c1.252398-2.127681 2.627323-3.7483874 4.121764-4.862119 1.493436-1.1117159 3.301227-1.6690856 5.423373-1.6690856 2.747843 0 4.941296.9917755 6.58036 2.9753265z" fill="#9e9e9e"/><path d="m242.295605 7c4.035322 0 7.530147.63004601 10.484579 1.89015692 2.954432 1.26011088 5.356373 3.68519368 7.205896 7.27532098 1.849522 3.5901273 2.774269 8.642383 2.774269 15.1569187 0 9.2725142-1.825475 15.7275139-5.47648 19.3651926-3.651006 3.6376786-8.286752 5.4564907-13.907379 5.4564907h-10.37649v-49.1440799zm-2.73824 5.2068474v38.8017118h4.251479c2.401977 0 4.479656-.5230571 6.233099-1.5691869 1.753444-1.0461298 3.170589-3.0075938 4.251479-5.8844508 1.08089-2.8768569 1.621326-6.9543245 1.621326-12.2325249 0-5.3733032-.564456-9.4507707-1.693385-12.232525s-2.570094-4.6243416-4.323538-5.5278174c-1.753443-.9034757-3.879161-1.3552068-6.377217-1.3552068zm42.955145 5.5634807c4.515717 0 8.010542 1.6523848 10.484579 4.957204 2.474036 3.3048192 3.711036 8.1668723 3.711036 14.5863053 0 6.0390221-1.261019 10.8297493-3.783095 14.3723252-2.522077 3.542576-6.016901 5.3138374-10.484579 5.3138374-4.467677 0-7.950492-1.7355984-10.448549-5.2068474-2.498056-3.4712489-3.747065-8.2738637-3.747065-14.4079885 0-6.3243303 1.249009-11.1744958 3.747065-14.550642 2.498057-3.3761462 6.004891-5.064194 10.520608-5.064194zm0 5.064194c-2.546096 0-4.443629 1.1293278-5.692657 3.3880171-1.249029 2.2586894-1.873533 5.9795271-1.873533 11.1626249 0 5.1355463.624504 8.8444964 1.873533 11.1269614 1.249028 2.2824651 3.122542 3.4236805 5.620598 3.4236805 2.546096 0 4.44363-1.1412154 5.692658-3.4236805 1.249028-2.282465 1.873533-6.0151904 1.873533-11.1982881 0-5.1355464-.624505-8.8326088-1.873533-11.0912982-1.249028-2.2586893-3.122542-3.3880171-5.620599-3.3880171zm38.48749 31.5977176c-2.16178 1.7118487-4.58774 2.5677603-7.277955 2.5677603-2.834333 0-5.032109-.8321362-6.593394-2.4964337-1.561286-1.6642974-2.341916-3.8991776-2.341916-6.7047075v-24.3223966h-5.116186v-4.9215407h5.116186v-8.4878744l6.341188-.78459346v9.27246786h7.350013l-.64853 4.9215407h-6.701483v24.3937232c0 2.6153246 1.128912 3.9229672 3.386771 3.9229672.768633 0 1.441176-.0951012 2.017651-.2853067.576474-.1902054 1.249018-.5230599 2.01765-.9985734z" fill="#3db049" fill-rule="nonzero"/></g></svg>